<?xml version="1.0" encoding="utf-8"?>
<!-- Generator: Adobe Illustrator 17.0.0, SVG Export Plug-In . SVG Version: 6.00 Build 0)  -->
<!DOCTYPE svg PUBLIC "-//W3C//DTD SVG 1.1//EN" "http://www.w3.org/Graphics/SVG/1.1/DTD/svg11.dtd">
<svg version="1.1" id="Livello_1" xmlns="http://www.w3.org/2000/svg" xmlns:xlink="http://www.w3.org/1999/xlink" x="0px" y="0px"
	 width="300px" height="200px" viewBox="0 0 300 200" enable-background="new 0 0 300 200" xml:space="preserve">
<path fill="#CCCCCC" d="M49.273,53.144c24.204-0.485,46.349,19.393,46.32,46.422c-0.027,25.226-21.018,45.846-46.328,45.681
	c-25.999-0.17-46.147-20.71-46.022-46.919C3.363,73.531,24.254,53.023,49.273,53.144z M42.618,77.23
	c-7.26,0.23-14.712,0.774-21.935,2.974c-2.579,0.786-3.788,3.017-3.128,5.506c0.594,2.238,2.926,3.588,5.363,2.96
	c8.656-2.23,17.397-3.001,26.333-2.242c9.504,0.807,18.653,2.675,27.069,7.377c0.986,0.551,1.997,1.021,3.237,0.777
	c2.211-0.435,3.525-1.805,3.783-3.918c0.264-2.164-0.995-3.626-2.863-4.658C68.76,79.526,55.987,77.62,42.618,77.23z M41.791,93.291
	c-6.063-0.118-11.999,0.652-17.812,2.358c-2.84,0.834-4.005,2.479-3.331,4.683c0.71,2.322,2.449,3.09,5.229,2.394
	c15.617-3.908,30.615-2.502,44.866,5.264c2.428,1.323,4.555,0.905,5.676-1.089c1.098-1.953,0.284-3.944-2.187-5.373
	C64.191,95.723,53.28,93.364,41.791,93.291z M41.804,108.398c-5.321-0.14-10.932,0.623-16.471,1.939
	c-2.374,0.564-3.392,1.921-2.792,3.703c0.699,2.077,2.148,2.438,4.251,1.987c7.421-1.592,14.909-2.251,22.501-1.294
	c6.048,0.763,11.701,2.597,16.932,5.722c1.527,0.913,2.942,0.881,4.153-0.498c1.398-1.591,0.876-3.417-1.387-4.751
	C60.723,110.335,51.744,108.224,41.804,108.398z"/>
<path fill="#CCCCCC" d="M284.423,110.125c1.333-3.746,2.644-7.389,3.926-11.043c1.023-2.917,2.047-5.836,2.997-8.777
	c0.437-1.351,1.155-2.008,2.655-1.882c1.456,0.122,2.936,0.096,4.397,0.006c1.751-0.108,1.867,0.555,1.297,2.014
	c-4.081,10.458-8.099,20.94-12.155,31.407c-0.322,0.832-0.804,1.602-1.165,2.42c-3.234,7.323-11.295,6.615-16.129,4.343
	c-0.835-0.392-1.113-0.851-0.586-1.692c0.257-0.41,0.426-0.879,0.6-1.335c0.835-2.185,1.51-4.282,4.705-2.559
	c1.413,0.762,3.176,0.25,4.382-1.229c1.163-1.427,0.52-2.712-0.059-4.091c-2.774-6.603-5.587-13.191-8.216-19.852
	c-0.724-1.835-1.682-2.644-3.605-2.349c-0.478,0.073-0.987,0.076-1.463,0c-2.094-0.333-2.791,0.389-2.739,2.621
	c0.16,6.76,0,13.527,0.086,20.29c0.022,1.721-0.54,2.217-2.219,2.249c-6.027,0.114-6.027,0.17-6.028-5.803
	c0-5.704-0.048-11.409,0.036-17.113c0.024-1.604-0.28-2.518-2.099-2.244c-1.369,0.206-1.948-0.41-1.851-1.79
	c0.062-0.891,0.072-1.8-0.026-2.686c-0.215-1.928,0.36-2.961,2.513-2.575c1.249,0.224,1.46-0.522,1.465-1.596
	c0.012-2.215,0.371-4.389,1.47-6.35c1.998-3.565,6.607-5.185,11.885-4.071c0.999,0.211,2.638-0.096,2.827,1.375
	c0.236,1.833,0.144,3.735-0.043,5.584c-0.076,0.753-0.948,0.314-1.462,0.213c-1.117-0.22-2.211-0.57-3.375-0.434
	c-2.304,0.268-3.585,2.001-3.321,4.287c0.132,1.145,0.864,0.981,1.57,0.984c2.934,0.011,5.871,0.09,8.8-0.028
	c1.632-0.066,2.435,0.446,3.011,2.049c2.065,5.74,4.302,11.419,6.51,17.107C283.325,108.387,283.43,109.33,284.423,110.125z"/>
<path fill="#CCCCCC" d="M153.768,91.915c1.316-0.191,1.884-1.434,2.886-2.058c5.802-3.612,13.585-2.296,18.276,3.317
	c5.462,6.535,5.181,19.761-2.889,25.396c-5.154,3.599-11.824,3.542-16.81-0.341c-0.426-0.332-0.759-1.076-1.375-0.826
	c-0.777,0.316-0.391,1.142-0.397,1.738c-0.029,2.933-0.077,5.869,0.026,8.799c0.055,1.559-0.402,2.116-2.046,2.13
	c-5.93,0.052-5.93,0.112-5.929-5.766c0.001-10.837-0.025-21.675,0.018-32.512c0.015-3.733-0.538-3.262,3.441-3.35
	c0.081-0.002,0.163,0,0.244,0C153.101,88.436,153.101,88.436,153.768,91.915z M153.371,103.041
	c0.014,6.562,3.139,10.515,7.55,10.953c4.285,0.425,7.543-1.62,8.897-5.585c1.622-4.753,0.152-9.97-3.446-12.193
	c-2.81-1.736-5.703-1.835-8.54-0.171C154.657,97.905,153.437,100.892,153.371,103.041z"/>
<path fill="#CCCCCC" d="M126.233,77.675c4.848,0.138,9.444,1.491,13.589,4.342c1.232,0.847,1.741,1.68,0.519,2.899
	c-0.057,0.056-0.092,0.134-0.138,0.201c-2.782,4.132-2.754,4.078-7.147,1.843c-2.942-1.497-6.068-2.439-9.411-1.647
	c-2.058,0.488-3.823,1.398-4.088,3.898c-0.278,2.622,1.241,3.951,3.387,4.687c2.603,0.893,5.283,1.564,7.92,2.361
	c1.243,0.376,2.492,0.758,3.691,1.251c5.859,2.406,8.509,6.392,8.001,11.951c-0.511,5.597-4.522,10.069-10.327,11.203
	c-7.79,1.521-14.811-0.35-21.135-5.101c-1.344-1.01-1.57-1.812-0.29-3.055c1.218-1.183,2.031-3.147,3.434-3.675
	c1.485-0.559,2.571,1.595,3.98,2.356c3.828,2.068,7.747,3.357,12.138,2.246c2.13-0.539,3.715-1.61,3.971-4.014
	c0.276-2.596-1.25-3.955-3.409-4.683c-2.455-0.828-4.996-1.398-7.473-2.164c-1.783-0.552-3.566-1.145-5.276-1.888
	c-4.039-1.755-6.568-4.69-6.846-9.258c-0.304-4.997,1.591-8.885,5.902-11.489C119.937,78.299,122.948,77.718,126.233,77.675z"/>
<path fill="#CCCCCC" d="M198.013,87.928c9.706-0.068,17.008,7.023,17.054,16.564c0.045,9.205-7.306,16.675-16.48,16.747
	c-10,0.079-17.454-6.868-17.549-16.354C180.942,95.268,188.221,87.997,198.013,87.928z M189.059,104.177
	c-0.074,5.77,3.748,10.021,9.003,10.016c5.126-0.005,9.095-4.127,9.106-9.459c0.011-5.454-4.027-9.79-9.119-9.792
	C192.964,94.939,189.126,98.881,189.059,104.177z"/>
<path fill="#CCCCCC" d="M219.855,105.124c0-2.441-0.083-4.885,0.029-7.32c0.073-1.587-0.262-2.542-2.079-2.29
	c-1.525,0.212-2.054-0.486-1.898-1.958c0.094-0.885,0.109-1.799,0-2.68c-0.233-1.876,0.407-2.758,2.39-2.427
	c1.359,0.227,1.717-0.51,1.557-1.716c-0.053-0.4-0.01-0.812-0.011-1.219c-0.019-5.865,0.649-6.381,6.653-5.466
	c1.116,0.17,1.288,0.724,1.28,1.63c-0.017,1.708,0.052,3.419-0.014,5.125c-0.05,1.281,0.457,1.783,1.722,1.661
	c0.726-0.07,1.463-0.019,2.195-0.019c4.472-0.001,5.54,1.452,4.517,5.972c-0.221,0.976-0.786,1.104-1.57,1.104
	c-1.546,0-3.097,0.091-4.636-0.012c-1.664-0.111-2.299,0.448-2.248,2.197c0.114,3.902,0.019,7.809,0.036,11.714
	c0.017,3.918,1.587,5.104,5.439,4.15c2.84-0.703,2.84-0.703,2.838,2.102c-0.003,4.357-0.033,4.392-4.506,5.194
	c-7.461,1.338-11.689-2.143-11.706-9.64c-0.005-2.034-0.001-4.068-0.001-6.102C219.847,105.124,219.851,105.124,219.855,105.124z"/>
<path fill="#CCCCCC" d="M247.751,104.333c0,4.715-0.076,9.432,0.04,14.145c0.043,1.751-0.578,2.155-2.217,2.182
	c-5.775,0.096-5.776,0.155-5.775-5.702c0.002-8.049,0.047-16.097-0.019-24.145c-0.014-1.7,0.3-2.429,2.248-2.414
	c5.734,0.044,5.735-0.051,5.735,5.691c0,3.415,0,6.829,0,10.244C247.758,104.333,247.754,104.333,247.751,104.333z"/>
<path fill="#CCCCCC" d="M248.766,79.317c-0.033,2.794-2.459,5.242-5.092,5.14c-2.809-0.109-4.912-2.413-4.86-5.325
	c0.048-2.689,2.348-4.896,5.061-4.858C246.56,74.313,248.798,76.62,248.766,79.317z"/>
</svg>
