<?xml version="1.0" encoding="utf-8"?>
<!-- Generator: Adobe Illustrator 17.0.0, SVG Export Plug-In . SVG Version: 6.00 Build 0)  -->
<!DOCTYPE svg PUBLIC "-//W3C//DTD SVG 1.1//EN" "http://www.w3.org/Graphics/SVG/1.1/DTD/svg11.dtd">
<svg version="1.1" id="Livello_1" xmlns="http://www.w3.org/2000/svg" xmlns:xlink="http://www.w3.org/1999/xlink" x="0px" y="0px"
	 width="300px" height="200px" viewBox="0 0 300 200" enable-background="new 0 0 300 200" xml:space="preserve">
<path fill="#CCCCCC" d="M-300.209-80.349c24.204-0.485,46.349,19.393,46.32,46.422c-0.027,25.226-21.018,45.846-46.328,45.681
	c-25.999-0.17-46.147-20.71-46.022-46.919C-346.12-59.962-325.228-80.47-300.209-80.349z M-306.865-56.263
	c-7.26,0.23-14.712,0.774-21.935,2.974c-2.579,0.786-3.788,3.017-3.128,5.506c0.594,2.238,2.926,3.588,5.363,2.96
	c8.656-2.23,17.397-3.001,26.333-2.242c9.504,0.807,18.653,2.675,27.069,7.377c0.986,0.551,1.997,1.021,3.237,0.777
	c2.211-0.435,3.525-1.805,3.783-3.918c0.264-2.164-0.995-3.626-2.863-4.658C-280.723-53.967-293.495-55.874-306.865-56.263z
	 M-307.692-40.202c-6.063-0.118-11.999,0.652-17.812,2.358c-2.84,0.834-4.005,2.479-3.331,4.683c0.71,2.322,2.449,3.09,5.229,2.394
	c15.617-3.908,30.615-2.502,44.866,5.264c2.428,1.323,4.555,0.905,5.676-1.089c1.098-1.953,0.284-3.944-2.187-5.373
	C-285.291-37.77-296.202-40.13-307.692-40.202z M-307.679-25.095c-5.321-0.14-10.932,0.623-16.471,1.939
	c-2.374,0.564-3.392,1.921-2.792,3.703c0.699,2.077,2.148,2.438,4.251,1.987c7.421-1.592,14.909-2.251,22.501-1.294
	c6.048,0.763,11.701,2.597,16.932,5.722c1.527,0.913,2.942,0.881,4.153-0.498c1.397-1.591,0.876-3.417-1.387-4.751
	C-288.759-23.158-297.739-25.269-307.679-25.095z"/>
<path fill="#CCCCCC" d="M-65.06-23.368c1.333-3.746,2.644-7.389,3.926-11.043c1.023-2.917,2.047-5.836,2.997-8.777
	c0.437-1.351,1.155-2.008,2.655-1.882c1.456,0.122,2.936,0.096,4.397,0.006c1.751-0.108,1.867,0.555,1.297,2.014
	c-4.081,10.458-8.099,20.94-12.155,31.407c-0.322,0.832-0.804,1.602-1.165,2.42C-66.343-1.9-74.404-2.608-79.238-4.88
	c-0.835-0.392-1.113-0.851-0.586-1.692c0.257-0.41,0.426-0.879,0.6-1.335c0.835-2.185,1.51-4.282,4.705-2.559
	c1.413,0.762,3.176,0.25,4.382-1.229c1.163-1.427,0.52-2.712-0.059-4.091c-2.774-6.603-5.587-13.191-8.216-19.852
	c-0.724-1.835-1.682-2.644-3.605-2.349c-0.478,0.073-0.987,0.076-1.463,0c-2.094-0.333-2.791,0.389-2.739,2.621
	c0.16,6.76,0,13.527,0.086,20.29c0.022,1.721-0.54,2.217-2.219,2.249c-6.027,0.114-6.027,0.17-6.028-5.803
	c0-5.704-0.048-11.409,0.036-17.113c0.024-1.604-0.28-2.518-2.099-2.244c-1.369,0.206-1.948-0.41-1.851-1.79
	c0.062-0.891,0.072-1.8-0.026-2.686c-0.215-1.928,0.36-2.961,2.513-2.575c1.249,0.224,1.46-0.522,1.465-1.596
	c0.012-2.215,0.371-4.389,1.47-6.35c1.998-3.565,6.607-5.185,11.885-4.071c0.999,0.211,2.638-0.096,2.827,1.375
	c0.236,1.833,0.144,3.735-0.043,5.584c-0.076,0.752-0.948,0.314-1.462,0.213c-1.117-0.22-2.211-0.57-3.375-0.434
	c-2.304,0.268-3.585,2.001-3.321,4.287c0.132,1.145,0.864,0.981,1.57,0.984c2.934,0.011,5.871,0.09,8.8-0.028
	c1.632-0.066,2.435,0.446,3.011,2.049c2.065,5.74,4.302,11.419,6.51,17.107C-66.158-25.107-66.053-24.163-65.06-23.368z"/>
<path fill="#CCCCCC" d="M-195.714-41.578c1.316-0.191,1.884-1.434,2.886-2.058c5.802-3.612,13.585-2.296,18.276,3.317
	c5.462,6.535,5.181,19.761-2.889,25.396c-5.154,3.599-11.824,3.542-16.81-0.341c-0.426-0.332-0.759-1.076-1.375-0.826
	c-0.777,0.316-0.391,1.142-0.397,1.738c-0.029,2.933-0.077,5.869,0.026,8.799c0.055,1.559-0.402,2.116-2.046,2.13
	c-5.93,0.052-5.93,0.112-5.929-5.766c0.001-10.837-0.025-21.675,0.018-32.512c0.015-3.733-0.538-3.262,3.441-3.35
	c0.081-0.002,0.163,0,0.244,0C-196.382-45.057-196.382-45.057-195.714-41.578z M-196.112-30.453
	c0.014,6.562,3.139,10.515,7.55,10.953c4.285,0.425,7.543-1.62,8.897-5.585c1.622-4.753,0.152-9.97-3.446-12.193
	c-2.81-1.736-5.703-1.835-8.54-0.171C-194.825-35.588-196.045-32.601-196.112-30.453z"/>
<path fill="#CCCCCC" d="M-223.25-55.818c4.848,0.138,9.444,1.491,13.589,4.342c1.232,0.847,1.741,1.68,0.519,2.899
	c-0.057,0.056-0.092,0.134-0.138,0.201c-2.782,4.132-2.754,4.078-7.147,1.843c-2.942-1.497-6.068-2.439-9.411-1.647
	c-2.058,0.488-3.823,1.398-4.088,3.898c-0.278,2.622,1.241,3.951,3.387,4.687c2.603,0.893,5.283,1.564,7.92,2.361
	c1.243,0.376,2.492,0.758,3.691,1.251c5.859,2.406,8.509,6.392,8.001,11.951c-0.511,5.597-4.522,10.069-10.327,11.203
	c-7.79,1.521-14.811-0.35-21.135-5.101c-1.344-1.01-1.57-1.812-0.29-3.055c1.218-1.183,2.031-3.147,3.434-3.675
	c1.485-0.559,2.571,1.595,3.98,2.356c3.828,2.068,7.747,3.357,12.138,2.246c2.13-0.539,3.715-1.61,3.971-4.014
	c0.276-2.596-1.25-3.955-3.409-4.683c-2.455-0.828-4.996-1.398-7.473-2.164c-1.783-0.552-3.566-1.145-5.276-1.888
	c-4.039-1.755-6.568-4.69-6.846-9.258c-0.304-4.997,1.591-8.885,5.902-11.489C-229.545-55.194-226.534-55.776-223.25-55.818z"/>
<path fill="#CCCCCC" d="M-151.47-45.565c9.706-0.068,17.008,7.023,17.054,16.564c0.045,9.205-7.306,16.675-16.48,16.747
	c-10,0.079-17.454-6.868-17.549-16.354C-168.54-38.225-161.261-45.496-151.47-45.565z M-160.424-29.317
	c-0.074,5.77,3.748,10.021,9.003,10.016c5.126-0.005,9.095-4.127,9.106-9.459c0.011-5.454-4.027-9.79-9.119-9.792
	C-156.519-38.554-160.356-34.612-160.424-29.317z"/>
<path fill="#CCCCCC" d="M-129.627-28.37c0-2.441-0.083-4.885,0.029-7.32c0.073-1.587-0.262-2.542-2.079-2.29
	c-1.525,0.212-2.054-0.486-1.898-1.958c0.094-0.885,0.109-1.799,0-2.68c-0.233-1.876,0.407-2.758,2.39-2.427
	c1.359,0.227,1.717-0.51,1.557-1.716c-0.053-0.4-0.01-0.812-0.011-1.219c-0.019-5.865,0.649-6.381,6.653-5.466
	c1.116,0.17,1.288,0.724,1.28,1.63c-0.017,1.708,0.052,3.419-0.014,5.125c-0.05,1.281,0.457,1.783,1.722,1.661
	c0.726-0.07,1.463-0.019,2.195-0.019c4.472-0.001,5.54,1.452,4.517,5.972c-0.221,0.976-0.786,1.104-1.57,1.104
	c-1.546,0-3.097,0.091-4.636-0.012c-1.664-0.111-2.299,0.448-2.248,2.197c0.114,3.902,0.019,7.809,0.036,11.714
	c0.017,3.918,1.587,5.104,5.439,4.15c2.84-0.703,2.84-0.703,2.838,2.102c-0.003,4.357-0.033,4.392-4.506,5.194
	c-7.461,1.338-11.689-2.143-11.706-9.64c-0.005-2.034-0.001-4.068-0.001-6.102C-129.636-28.37-129.632-28.37-129.627-28.37z"/>
<path fill="#CCCCCC" d="M-101.732-29.16c0,4.715-0.076,9.432,0.04,14.145c0.043,1.751-0.578,2.155-2.217,2.182
	c-5.775,0.096-5.776,0.155-5.775-5.702c0.002-8.049,0.047-16.097-0.019-24.145c-0.014-1.699,0.3-2.429,2.248-2.414
	c5.734,0.044,5.735-0.051,5.735,5.691c0,3.415,0,6.829,0,10.244C-101.725-29.16-101.728-29.16-101.732-29.16z"/>
<path fill="#CCCCCC" d="M-100.717-54.176c-0.033,2.794-2.459,5.242-5.092,5.14c-2.809-0.109-4.912-2.413-4.86-5.325
	c0.048-2.689,2.348-4.896,5.061-4.858C-102.922-59.18-100.685-56.873-100.717-54.176z"/>
<path fill="#CCCCCC" d="M-294.644,99.525c2.3-5.306,6.293-8.056,11.98-8.029c5.774,0.028,9.396,3.226,11.65,8.53
	c0.551-0.966,0.965-1.762,1.442-2.517c5.204-8.245,18.311-7.93,22.752,0.549c1.181,2.254,1.48,4.717,1.485,7.208
	c0.023,11.624,0.013,23.249,0.005,34.873c-0.002,2.227-0.479,2.69-2.697,2.698c-2.478,0.008-4.957,0.015-7.435-0.002
	c-1.981-0.014-2.487-0.522-2.488-2.528c-0.008-10.03-0.004-20.061-0.007-30.091c0-0.471-0.015-0.944-0.052-1.414
	c-0.263-3.302-1.689-5.062-4.339-5.368c-3.234-0.373-5.944,1.3-6.861,4.295c-0.7,2.286-0.681,4.663-0.689,7.018
	c-0.03,8.438-0.01,16.876-0.013,25.314c-0.001,2.414-0.343,2.763-2.751,2.776c-2.36,0.012-4.72,0.008-7.081,0
	c-2.317-0.007-2.695-0.374-2.696-2.645c-0.004-9.323-0.003-18.646-0.001-27.969c0-1.717-0.093-3.428-0.589-5.08
	c-0.745-2.48-2.25-3.707-4.677-3.904c-2.48-0.201-4.543,0.974-5.568,3.258c-1.015,2.26-1.129,4.689-1.135,7.112
	c-0.021,8.792-0.006,17.584-0.008,26.376c-0.001,2.484-0.371,2.85-2.877,2.856c-2.419,0.006-4.839,0.014-7.258-0.005
	c-1.995-0.015-2.477-0.501-2.478-2.539c-0.008-15.106-0.01-30.211-0.002-45.317c0.001-1.904,0.528-2.436,2.405-2.457
	c2.36-0.027,4.721-0.021,7.081,0.001c2.105,0.019,2.497,0.42,2.511,2.48c0.009,1.436,0.002,2.873,0.002,4.309
	C-294.904,99.382-294.774,99.454-294.644,99.525z"/>
<path fill="#CCCCCC" d="M-317.61,115.324c-0.001,2.949,0.079,5.9-0.022,8.845c-0.12,3.507,0.775,6.604,3.014,9.357
	c1.47,1.808,1.336,2.335-0.368,3.818c-1.912,1.664-3.835,3.316-5.733,4.996c-1.164,1.03-2.246,1.084-3.419-0.022
	c-1.379-1.301-2.696-2.651-3.666-4.283c-0.592-0.997-1.01-1.129-1.882-0.205c-4.077,4.317-9.182,5.932-15.036,5.632
	c-7.272-0.373-12.252-5.344-12.717-12.833c-0.53-8.54,3.984-14.966,12.239-17.358c4.153-1.203,8.431-1.696,12.724-2.015
	c1.47-0.109,2.255-0.502,2.002-2.164c-0.194-1.274-0.019-2.613-0.285-3.864c-0.556-2.623-2.343-4.034-5.139-4.318
	c-3.326-0.338-6.201,1.025-7.475,3.596c-0.31,0.625-0.473,1.323-0.703,1.989c-0.374,1.086-1.054,1.615-2.275,1.462
	c-2.572-0.323-5.153-0.58-7.731-0.853c-1.489-0.158-2.059-0.935-1.749-2.413c1.06-5.062,3.844-8.874,8.515-11.063
	c6.822-3.198,13.891-3.504,20.956-0.881c6.041,2.243,8.671,6.599,8.745,13.91C-317.585,109.544-317.609,112.434-317.61,115.324z
	 M-330.498,122.222c0-0.824-0.071-1.656,0.017-2.471c0.119-1.1-0.282-1.428-1.371-1.364c-1.946,0.115-3.877,0.3-5.752,0.836
	c-4.45,1.272-6.593,4.25-6.405,8.893c0.102,2.507,0.904,4.683,3.42,5.684c2.592,1.032,4.861,0.202,6.768-1.666
	C-331.036,129.408-330.464,125.908-330.498,122.222z"/>
<path fill="#CCCCCC" d="M-208.55,136.892c-0.82,0.75-1.552,1.43-2.295,2.096c-4.843,4.343-10.578,5.298-16.698,4.006
	c-6.854-1.446-10.788-8.069-9.768-15.83c0.997-7.591,5.526-11.992,12.636-14.017c4.039-1.151,8.21-1.605,12.388-1.901
	c1.406-0.1,2.212-0.48,1.913-2.093c-0.138-0.744-0.022-1.531-0.088-2.293c-0.32-3.694-1.913-5.521-5.13-5.925
	c-3.835-0.481-6.965,1.248-8.114,4.482c-0.95,2.674-0.95,2.677-3.736,2.384c-2.168-0.228-4.337-0.454-6.503-0.705
	c-1.641-0.191-2.132-0.868-1.786-2.5c1.212-5.712,4.648-9.583,10.018-11.679c5.538-2.162,11.266-2.477,17.013-0.983
	c7.628,1.983,11.139,6.642,11.187,14.646c0.036,6.016,0.072,12.033-0.019,18.047c-0.05,3.269,0.803,6.129,2.838,8.701
	c1.652,2.089,1.559,2.444-0.435,4.196c-1.815,1.595-3.655,3.163-5.458,4.771c-1.225,1.092-2.31,1.084-3.564-0.047
	C-205.875,140.694-207.21,138.84-208.55,136.892z M-210.394,122.287c0-0.883-0.065-1.773,0.017-2.648
	c0.099-1.064-0.375-1.286-1.33-1.244c-2.127,0.092-4.232,0.305-6.26,0.973c-4.113,1.354-6.097,4.183-6.008,8.501
	c0.061,2.97,1.349,5.222,3.549,5.986c2.708,0.941,4.973,0.044,6.877-1.922C-210.942,129.238-210.446,125.829-210.394,122.287z"/>
<path fill="#CCCCCC" d="M-86.96,100.508c0.485-0.921,0.939-1.86,1.459-2.762c2.874-4.984,7.415-6.976,13.553-5.966
	c5.152,0.848,8.711,4.434,9.773,9.85c0.444,2.263,0.661,4.548,0.661,6.853c0.001,10.56,0.002,21.12-0.001,31.681
	c-0.001,2.265-0.4,2.665-2.67,2.673c-2.419,0.008-4.838,0.009-7.256-0.001c-2.246-0.009-2.623-0.406-2.628-2.719
	c-0.023-9.733-0.039-19.467-0.072-29.2c-0.005-1.361-0.179-2.711-0.622-4.006c-1.426-4.163-6.228-5.103-9.148-1.792
	c-1.555,1.763-2.072,3.942-2.363,6.184c-0.587,4.524-0.24,9.073-0.288,13.611c-0.056,5.191-0.045,10.383,0.006,15.575
	c0.016,1.669-0.697,2.373-2.32,2.357c-2.655-0.027-5.31-0.027-7.964,0c-1.54,0.016-2.254-0.641-2.251-2.231
	c0.022-15.339,0.023-30.678,0.001-46.016c-0.002-1.444,0.687-2.064,2.027-2.075c2.596-0.022,5.192-0.017,7.787-0.001
	c1.345,0.008,2.067,0.609,2.022,2.064c-0.059,1.936-0.014,3.875-0.014,5.813C-87.166,100.435-87.063,100.471-86.96,100.508z"/>
<path fill="#CCCCCC" d="M-105.954,119.709c-0.07,5.172-1.643,11.693-6.185,17.269c-7.744,9.506-24.96,9.946-31.753-3.554
	c-5.171-10.277-5.156-20.985-0.136-31.36c3.51-7.253,9.736-10.777,17.789-10.523c8.552,0.27,14.311,4.819,17.658,12.53
	C-106.677,108.456-105.963,113.105-105.954,119.709z M-119.505,118.018c0-0.412,0.006-0.824-0.001-1.236
	c-0.066-3.891-0.247-7.776-1.514-11.5c-0.86-2.529-2.634-3.985-5.371-4.113c-2.632-0.123-4.506,1.047-5.723,3.359
	c-0.581,1.103-0.99,2.265-1.211,3.482c-1.062,5.849-0.92,11.714-0.112,17.573c0.307,2.225,0.855,4.399,2.24,6.244
	c2.05,2.731,5.901,3.014,8.355,0.631c1.453-1.411,2.121-3.222,2.562-5.139C-119.576,124.256-119.493,121.141-119.505,118.018z"/>
<path fill="#CCCCCC" d="M-237.786,180.369c-28.935-0.4-54.503-9.738-76.401-28.814c-0.222-0.194-0.441-0.391-0.661-0.588
	c-0.755-0.675-1.387-1.507-0.654-2.44c0.714-0.908,1.677-0.518,2.551-0.018c14.708,8.429,30.413,14.186,47.036,17.434
	c16.205,3.166,32.503,3.87,48.906,1.742c13.809-1.792,27.159-5.275,40.007-10.661c0.379-0.159,0.769-0.329,1.17-0.395
	c1.241-0.204,2.455-0.076,3.036,1.2c0.567,1.244,0.041,2.281-1.02,3.075c-2.696,2.019-5.531,3.829-8.478,5.446
	c-13.624,7.473-28.231,11.747-43.659,13.34C-229.886,180.096-233.821,180.386-237.786,180.369z"/>
<path fill="#CCCCCC" d="M-168.992,102.514c-5.092,0-9.852,0.003-14.611-0.001c-2.482-0.002-2.849-0.376-2.855-2.871
	c-0.004-1.652,0.008-3.304-0.003-4.956c-0.009-1.51,0.622-2.253,2.237-2.248c9.735,0.035,19.47,0.033,29.205,0.002
	c1.591-0.005,2.277,0.655,2.215,2.225c-0.046,1.178-0.089,2.367,0.01,3.538c0.154,1.811-0.439,3.308-1.47,4.766
	c-5.038,7.126-10.026,14.289-15.029,21.44c-0.36,0.515-0.7,1.044-1.186,1.77c3.309,0.292,6.418,0.286,9.437,1.026
	c2.471,0.606,4.859,1.416,7.127,2.587c1.35,0.697,2.011,1.756,2.006,3.261c-0.007,2.124,0.038,4.249-0.022,6.372
	c-0.055,1.944-1.014,2.504-2.789,1.679c-10.255-4.765-20.49-4.79-30.723,0.072c-1.649,0.784-2.607,0.195-2.65-1.668
	c-0.056-2.418-0.035-4.838,0.002-7.257c0.028-1.831,0.768-3.394,1.818-4.888c5.424-7.72,10.801-15.472,16.193-23.214
	C-169.78,103.717-169.496,103.272-168.992,102.514z"/>
<path fill="#CCCCCC" d="M-169.835,144.875c2.963,0.005,5.885,0.262,8.736,1.137c1.557,0.478,2.364,1.448,2.338,3.099
	c-0.144,9.177-3.136,17.185-9.717,23.723c-0.209,0.208-0.416,0.43-0.663,0.583c-0.598,0.372-1.252,0.874-1.932,0.305
	c-0.603-0.505-0.306-1.187-0.062-1.799c1.62-4.052,3.186-8.121,4.265-12.36c0.38-1.492,0.679-2.99,0.668-4.534
	c-0.015-2.083-0.606-2.898-2.618-3.393c-2.714-0.669-5.475-0.771-8.254-0.497c-2.931,0.288-5.862,0.585-8.798,0.826
	c-0.776,0.064-1.828,0.452-2.217-0.527c-0.456-1.15,0.598-1.653,1.379-2.158C-181.57,145.96-175.814,144.982-169.835,144.875z"/>
<path fill="#CCCCCC" d="M73.044,85.225c-6.736,4.103-10.203,9.983-9.544,17.838c0.652,7.771,4.843,13.176,12.074,16.309
	c-0.557,1.205-1.098,2.416-1.673,3.611c-1.818,3.781-4.118,7.268-6.611,10.626c-1.82,2.452-3.848,4.718-6.408,6.45
	c-3.366,2.278-6.897,2.526-10.614,0.954c-1.693-0.716-3.371-1.54-5.138-1.998c-4.073-1.056-8.098-0.74-12.013,0.886
	c-1.673,0.695-3.361,1.399-5.104,1.873c-2.934,0.797-5.64-0.005-8.147-1.589c-2.671-1.688-4.717-4.02-6.58-6.52
	c-2.465-3.31-4.618-6.812-6.344-10.57c-1.853-4.033-3.209-8.222-4.021-12.586c-0.648-3.482-0.9-7-0.672-10.527
	c0.456-7.064,2.963-13.211,8.419-17.937c2.894-2.507,6.174-4.289,9.96-5.068c3.262-0.671,6.447-0.302,9.579,0.7
	c2.018,0.646,4.005,1.388,6.03,2.009c3.349,1.026,6.614,0.657,9.853-0.603c1.916-0.746,3.877-1.428,5.873-1.907
	c5.639-1.353,10.842-0.19,15.624,3.017C69.66,81.58,71.47,83.251,73.044,85.225z"/>
<path fill="#CCCCCC" d="M157.713,105.02c0,0.276,0,0.514,0,0.753c0,6.257-0.021,12.515,0.012,18.772
	c0.01,1.926,0.165,3.854,1.066,5.621c0.943,1.848,2.423,2.717,4.538,2.797c3.161,0.119,5.58-2.518,6.034-4.924
	c0.074-0.393,0.045-0.807,0.045-1.212c0.002-7.09,0.001-14.181,0.003-21.271c0-0.16,0.017-0.321,0.029-0.53
	c3.765,0,7.511,0,11.312,0c0.154,12.046-0.186,24.101,0.231,36.189c-0.126,0.01-0.282,0.035-0.439,0.035
	c-2.885,0.002-5.77-0.011-8.655,0.014c-0.491,0.004-0.615-0.166-0.654-0.62c-0.131-1.504-0.306-3.005-0.48-4.65
	c-0.213,0.186-0.348,0.264-0.428,0.379c-2.099,3.048-4.977,4.834-8.627,5.451c-3.029,0.512-5.939,0.207-8.676-1.184
	c-2.901-1.474-4.573-3.979-5.548-7.006c-0.721-2.238-1.002-4.545-1.005-6.885c-0.011-7.009-0.004-14.018-0.004-21.028
	c0-0.219,0-0.438,0-0.701C150.224,105.02,153.911,105.02,157.713,105.02z"/>
<path fill="#CCCCCC" d="M201.091,141.223c-3.765,0-7.455,0-11.21,0c-0.163-12.061,0.227-24.116-0.324-36.208
	c0.218-0.015,0.395-0.037,0.571-0.038c2.844-0.002,5.689,0.008,8.533-0.01c0.455-0.003,0.641,0.107,0.675,0.593
	c0.081,1.151,0.225,2.297,0.349,3.445c0.034,0.316,0.088,0.63,0.147,1.049c0.183-0.139,0.309-0.196,0.38-0.294
	c2.01-2.79,4.704-4.583,8.061-5.233c3.791-0.734,7.438-0.331,10.655,2.029c2.411,1.769,3.765,4.251,4.523,7.086
	c0.526,1.969,0.75,3.977,0.746,6.018c-0.014,6.969-0.005,13.937-0.005,20.906c0,0.201,0,0.401,0,0.643c-3.731,0-7.414,0-11.172,0
	c0-0.261,0-0.499,0-0.738c0-6.237,0.017-12.474-0.01-18.711c-0.008-1.882-0.086-3.766-0.909-5.532
	c-0.867-1.859-2.596-2.978-4.648-2.929c-3.858,0.092-6.544,3.012-6.373,6.888c0.051,1.156,0.011,2.316,0.011,3.474
	c0,5.607,0,11.215,0,16.822C201.091,140.721,201.091,140.959,201.091,141.223z"/>
<path fill="#CCCCCC" d="M265.242,126.671c-7.734,0-15.467,0-23.247,0c-0.062,1.061,0.276,1.961,0.765,2.804
	c1.044,1.803,2.702,2.82,4.618,3.455c2.515,0.833,5.105,0.774,7.707,0.597c2.39-0.162,4.721-0.623,7.093-1.344
	c0.495,2.539,0.977,5.013,1.486,7.622c-1.259,0.379-2.517,0.791-3.793,1.135c-2.636,0.711-5.338,0.947-8.055,1.077
	c-3.646,0.175-7.195-0.284-10.56-1.73c-5.264-2.261-8.327-6.324-9.528-11.87c-0.498-2.3-0.666-4.637-0.405-6.954
	c0.677-6.007,3.043-11.118,8.271-14.551c2.059-1.352,4.341-2.215,6.795-2.445c1.79-0.168,3.62-0.319,5.396-0.132
	c4.887,0.514,8.741,2.804,11.247,7.135c1.435,2.48,2.175,5.18,2.471,8.013c0.239,2.29,0.22,4.575-0.164,6.85
	C265.322,126.432,265.284,126.526,265.242,126.671z M255.281,119.005c-0.064-0.666-0.072-1.294-0.19-1.9
	c-0.897-4.635-4.404-6.224-8.207-5.179c-2.571,0.707-3.883,2.712-4.642,5.127c-0.194,0.618-0.28,1.271-0.424,1.952
	C246.363,119.005,250.779,119.005,255.281,119.005z"/>
<path fill="#CCCCCC" d="M106.573,100.7c0-3.177,0-6.255,0-9.367c12.763,0,25.492,0,38.293,0c0.011,0.22,0.031,0.435,0.031,0.65
	c0.002,2.681-0.013,5.363,0.013,8.044c0.005,0.527-0.124,0.69-0.674,0.686c-4.063-0.024-8.126-0.013-12.188-0.013
	c-0.221,0-0.442,0-0.739,0c0,13.515,0,26.988,0,40.506c-3.8,0-7.523,0-11.335,0c0-0.272,0-0.529,0-0.786
	c0-12.94,0-25.88-0.001-38.82c0-1.057,0.056-0.898-0.926-0.899c-3.921-0.004-7.841-0.002-11.762-0.002
	C107.067,100.7,106.847,100.7,106.573,100.7z"/>
<path fill="#CCCCCC" d="M296.205,106.284c-0.662,2.573-1.312,5.098-1.954,7.594c-1.192-0.434-2.363-0.916-3.568-1.288
	c-1.852-0.571-3.75-0.873-5.69-0.553c-1.278,0.211-2.387,0.714-2.823,2.075c-0.356,1.113-0.046,2.18,0.985,2.822
	c0.988,0.615,2.059,1.122,3.143,1.554c2.292,0.913,4.653,1.649,6.737,3.037c3.349,2.231,4.905,5.353,4.703,9.345
	c-0.238,4.7-3.072,8.265-7.763,9.929c-2.164,0.767-4.397,1.123-6.667,1.22c-4.259,0.181-8.376-0.485-12.295-2.24
	c-0.533-0.239-0.595-0.503-0.461-1.016c0.629-2.408,1.224-4.825,1.825-7.216c1.181,0.485,2.35,1.032,3.564,1.449
	c2.132,0.732,4.318,1.254,6.595,1.172c1.009-0.037,1.98-0.227,2.938-0.645c1.713-0.748,2.152-3.609,0.282-4.719
	c-1.326-0.787-2.795-1.357-4.247-1.902c-2.461-0.924-4.822-1.987-6.855-3.708c-4.097-3.47-4.177-8.717-1.84-12.691
	c1.849-3.144,4.764-4.89,8.221-5.686c5.073-1.169,10.045-0.686,14.862,1.304C295.989,106.158,296.074,106.214,296.205,106.284z"/>
<path fill="#CCCCCC" d="M89.697,105.012c3.698,0,7.364,0,11.082,0c0,12.056,0,24.103,0,36.195c-3.673,0-7.356,0-11.082,0
	C89.697,129.145,89.697,117.096,89.697,105.012z"/>
<path fill="#CCCCCC" d="M54.994,56.599c0.069,0.747,0.244,1.495,0.19,2.225c-0.549,7.393-3.886,13.054-10.494,16.617
	c-1.908,1.029-3.98,1.576-6.149,1.701c-0.89,0.052-0.913,0.011-0.976-0.879c-0.125-1.772-0.015-3.524,0.498-5.236
	c1.623-5.41,4.901-9.472,9.868-12.176C50.122,57.658,52.441,56.89,54.994,56.599z"/>
<path fill="#CCCCCC" d="M95.186,100.543c-3.191-0.026-5.121-2.026-5.647-4.039c-0.958-3.671,1.318-7.21,5.475-7.259
	c1.921-0.023,3.631,0.457,4.88,1.979c1.392,1.696,1.699,3.654,0.946,5.697c-0.724,1.964-2.239,3.057-4.279,3.431
	C96.107,100.435,95.645,100.48,95.186,100.543z"/>
</svg>
