<?xml version="1.0" encoding="utf-8"?>
<!-- Generator: Adobe Illustrator 17.0.0, SVG Export Plug-In . SVG Version: 6.00 Build 0)  -->
<!DOCTYPE svg PUBLIC "-//W3C//DTD SVG 1.1//EN" "http://www.w3.org/Graphics/SVG/1.1/DTD/svg11.dtd">
<svg version="1.1" id="Livello_1" xmlns="http://www.w3.org/2000/svg" xmlns:xlink="http://www.w3.org/1999/xlink" x="0px" y="0px"
	 width="300px" height="200px" viewBox="0 0 300 200" enable-background="new 0 0 300 200" xml:space="preserve">
<path fill="#CCCCCC" d="M-300.209-80.349c24.204-0.485,46.349,19.393,46.32,46.422c-0.027,25.226-21.018,45.846-46.328,45.681
	c-25.999-0.17-46.147-20.71-46.022-46.919C-346.12-59.962-325.228-80.47-300.209-80.349z M-306.865-56.263
	c-7.26,0.23-14.712,0.774-21.935,2.974c-2.579,0.786-3.788,3.017-3.128,5.506c0.594,2.238,2.926,3.588,5.363,2.96
	c8.656-2.23,17.397-3.001,26.333-2.242c9.504,0.807,18.653,2.675,27.069,7.377c0.986,0.551,1.997,1.021,3.237,0.777
	c2.211-0.435,3.525-1.805,3.783-3.918c0.264-2.164-0.995-3.626-2.863-4.658C-280.723-53.967-293.495-55.874-306.865-56.263z
	 M-307.692-40.202c-6.063-0.118-11.999,0.652-17.812,2.358c-2.84,0.834-4.005,2.479-3.331,4.683c0.71,2.322,2.449,3.09,5.229,2.394
	c15.617-3.908,30.615-2.502,44.866,5.264c2.428,1.323,4.555,0.905,5.676-1.089c1.098-1.953,0.284-3.944-2.187-5.373
	C-285.291-37.77-296.202-40.13-307.692-40.202z M-307.679-25.095c-5.321-0.14-10.932,0.623-16.471,1.939
	c-2.374,0.564-3.392,1.921-2.792,3.703c0.699,2.077,2.148,2.438,4.251,1.987c7.421-1.592,14.909-2.251,22.501-1.294
	c6.048,0.763,11.701,2.597,16.932,5.722c1.527,0.913,2.942,0.881,4.153-0.498c1.397-1.591,0.876-3.417-1.387-4.751
	C-288.759-23.158-297.739-25.269-307.679-25.095z"/>
<path fill="#CCCCCC" d="M-65.06-23.368c1.333-3.746,2.644-7.389,3.926-11.043c1.023-2.917,2.047-5.836,2.997-8.777
	c0.437-1.351,1.155-2.008,2.655-1.882c1.456,0.122,2.936,0.096,4.397,0.006c1.751-0.108,1.867,0.555,1.297,2.014
	c-4.081,10.458-8.099,20.94-12.155,31.407c-0.322,0.832-0.804,1.602-1.165,2.42C-66.343-1.9-74.404-2.608-79.238-4.88
	c-0.835-0.392-1.113-0.851-0.586-1.692c0.257-0.41,0.426-0.879,0.6-1.335c0.835-2.185,1.51-4.282,4.705-2.559
	c1.413,0.762,3.176,0.25,4.382-1.229c1.163-1.427,0.52-2.712-0.059-4.091c-2.774-6.603-5.587-13.191-8.216-19.852
	c-0.724-1.835-1.682-2.644-3.605-2.349c-0.478,0.073-0.987,0.076-1.463,0c-2.094-0.333-2.791,0.389-2.739,2.621
	c0.16,6.76,0,13.527,0.086,20.29c0.022,1.721-0.54,2.217-2.219,2.249c-6.027,0.114-6.027,0.17-6.028-5.803
	c0-5.704-0.048-11.409,0.036-17.113c0.024-1.604-0.28-2.518-2.099-2.244c-1.369,0.206-1.948-0.41-1.851-1.79
	c0.062-0.891,0.072-1.8-0.026-2.686c-0.215-1.928,0.36-2.961,2.513-2.575c1.249,0.224,1.46-0.522,1.465-1.596
	c0.012-2.215,0.371-4.389,1.47-6.35c1.998-3.565,6.607-5.185,11.885-4.071c0.999,0.211,2.638-0.096,2.827,1.375
	c0.236,1.833,0.144,3.735-0.043,5.584c-0.076,0.752-0.948,0.314-1.462,0.213c-1.117-0.22-2.211-0.57-3.375-0.434
	c-2.304,0.268-3.585,2.001-3.321,4.287c0.132,1.145,0.864,0.981,1.57,0.984c2.934,0.011,5.871,0.09,8.8-0.028
	c1.632-0.066,2.435,0.446,3.011,2.049c2.065,5.74,4.302,11.419,6.51,17.107C-66.158-25.107-66.053-24.163-65.06-23.368z"/>
<path fill="#CCCCCC" d="M-195.714-41.578c1.316-0.191,1.884-1.434,2.886-2.058c5.802-3.612,13.585-2.296,18.276,3.317
	c5.462,6.535,5.181,19.761-2.889,25.396c-5.154,3.599-11.824,3.542-16.81-0.341c-0.426-0.332-0.759-1.076-1.375-0.826
	c-0.777,0.316-0.391,1.142-0.397,1.738c-0.029,2.933-0.077,5.869,0.026,8.799c0.055,1.559-0.402,2.116-2.046,2.13
	c-5.93,0.052-5.93,0.112-5.929-5.766c0.001-10.837-0.025-21.675,0.018-32.512c0.015-3.733-0.538-3.262,3.441-3.35
	c0.081-0.002,0.163,0,0.244,0C-196.382-45.057-196.382-45.057-195.714-41.578z M-196.112-30.453
	c0.014,6.562,3.139,10.515,7.55,10.953c4.285,0.425,7.543-1.62,8.897-5.585c1.622-4.753,0.152-9.97-3.446-12.193
	c-2.81-1.736-5.703-1.835-8.54-0.171C-194.825-35.588-196.045-32.601-196.112-30.453z"/>
<path fill="#CCCCCC" d="M-223.25-55.818c4.848,0.138,9.444,1.491,13.589,4.342c1.232,0.847,1.741,1.68,0.519,2.899
	c-0.057,0.056-0.092,0.134-0.138,0.201c-2.782,4.132-2.754,4.078-7.147,1.843c-2.942-1.497-6.068-2.439-9.411-1.647
	c-2.058,0.488-3.823,1.398-4.088,3.898c-0.278,2.622,1.241,3.951,3.387,4.687c2.603,0.893,5.283,1.564,7.92,2.361
	c1.243,0.376,2.492,0.758,3.691,1.251c5.859,2.406,8.509,6.392,8.001,11.951c-0.511,5.597-4.522,10.069-10.327,11.203
	c-7.79,1.521-14.811-0.35-21.135-5.101c-1.344-1.01-1.57-1.812-0.29-3.055c1.218-1.183,2.031-3.147,3.434-3.675
	c1.485-0.559,2.571,1.595,3.98,2.356c3.828,2.068,7.747,3.357,12.138,2.246c2.13-0.539,3.715-1.61,3.971-4.014
	c0.276-2.596-1.25-3.955-3.409-4.683c-2.455-0.828-4.996-1.398-7.473-2.164c-1.783-0.552-3.566-1.145-5.276-1.888
	c-4.039-1.755-6.568-4.69-6.846-9.258c-0.304-4.997,1.591-8.885,5.902-11.489C-229.545-55.194-226.534-55.776-223.25-55.818z"/>
<path fill="#CCCCCC" d="M-151.47-45.565c9.706-0.068,17.008,7.023,17.054,16.564c0.045,9.205-7.306,16.675-16.48,16.747
	c-10,0.079-17.454-6.868-17.549-16.354C-168.54-38.225-161.261-45.496-151.47-45.565z M-160.424-29.317
	c-0.074,5.77,3.748,10.021,9.003,10.016c5.126-0.005,9.095-4.127,9.106-9.459c0.011-5.454-4.027-9.79-9.119-9.792
	C-156.519-38.554-160.356-34.612-160.424-29.317z"/>
<path fill="#CCCCCC" d="M-129.627-28.37c0-2.441-0.083-4.885,0.029-7.32c0.073-1.587-0.262-2.542-2.079-2.29
	c-1.525,0.212-2.054-0.486-1.898-1.958c0.094-0.885,0.109-1.799,0-2.68c-0.233-1.876,0.407-2.758,2.39-2.427
	c1.359,0.227,1.717-0.51,1.557-1.716c-0.053-0.4-0.01-0.812-0.011-1.219c-0.019-5.865,0.649-6.381,6.653-5.466
	c1.116,0.17,1.288,0.724,1.28,1.63c-0.017,1.708,0.052,3.419-0.014,5.125c-0.05,1.281,0.457,1.783,1.722,1.661
	c0.726-0.07,1.463-0.019,2.195-0.019c4.472-0.001,5.54,1.452,4.517,5.972c-0.221,0.976-0.786,1.104-1.57,1.104
	c-1.546,0-3.097,0.091-4.636-0.012c-1.664-0.111-2.299,0.448-2.248,2.197c0.114,3.902,0.019,7.809,0.036,11.714
	c0.017,3.918,1.587,5.104,5.439,4.15c2.84-0.703,2.84-0.703,2.838,2.102c-0.003,4.357-0.033,4.392-4.506,5.194
	c-7.461,1.338-11.689-2.143-11.706-9.64c-0.005-2.034-0.001-4.068-0.001-6.102C-129.636-28.37-129.632-28.37-129.627-28.37z"/>
<path fill="#CCCCCC" d="M-101.732-29.16c0,4.715-0.076,9.432,0.04,14.145c0.043,1.751-0.578,2.155-2.217,2.182
	c-5.775,0.096-5.776,0.155-5.775-5.702c0.002-8.049,0.047-16.097-0.019-24.145c-0.014-1.699,0.3-2.429,2.248-2.414
	c5.734,0.044,5.735-0.051,5.735,5.691c0,3.415,0,6.829,0,10.244C-101.725-29.16-101.728-29.16-101.732-29.16z"/>
<path fill="#CCCCCC" d="M-100.717-54.176c-0.033,2.794-2.459,5.242-5.092,5.14c-2.809-0.109-4.912-2.413-4.86-5.325
	c0.048-2.689,2.348-4.896,5.061-4.858C-102.922-59.18-100.685-56.873-100.717-54.176z"/>
<path fill="#CCCCCC" d="M-294.644,99.525c2.3-5.306,6.293-8.056,11.98-8.029c5.774,0.028,9.396,3.226,11.65,8.53
	c0.551-0.966,0.965-1.762,1.442-2.517c5.204-8.245,18.311-7.93,22.752,0.549c1.181,2.254,1.48,4.717,1.485,7.208
	c0.023,11.624,0.013,23.249,0.005,34.873c-0.002,2.227-0.479,2.69-2.697,2.698c-2.478,0.008-4.957,0.015-7.435-0.002
	c-1.981-0.014-2.487-0.522-2.488-2.528c-0.008-10.03-0.004-20.061-0.007-30.091c0-0.471-0.015-0.944-0.052-1.414
	c-0.263-3.302-1.689-5.062-4.339-5.368c-3.234-0.373-5.944,1.3-6.861,4.295c-0.7,2.286-0.681,4.663-0.689,7.018
	c-0.03,8.438-0.01,16.876-0.013,25.314c-0.001,2.414-0.343,2.763-2.751,2.776c-2.36,0.012-4.72,0.008-7.081,0
	c-2.317-0.007-2.695-0.374-2.696-2.645c-0.004-9.323-0.003-18.646-0.001-27.969c0-1.717-0.093-3.428-0.589-5.08
	c-0.745-2.48-2.25-3.707-4.677-3.904c-2.48-0.201-4.543,0.974-5.568,3.258c-1.015,2.26-1.129,4.689-1.135,7.112
	c-0.021,8.792-0.006,17.584-0.008,26.376c-0.001,2.484-0.371,2.85-2.877,2.856c-2.419,0.006-4.839,0.014-7.258-0.005
	c-1.995-0.015-2.477-0.501-2.478-2.539c-0.008-15.106-0.01-30.211-0.002-45.317c0.001-1.904,0.528-2.436,2.405-2.457
	c2.36-0.027,4.721-0.021,7.081,0.001c2.105,0.019,2.497,0.42,2.511,2.48c0.009,1.436,0.002,2.873,0.002,4.309
	C-294.904,99.382-294.774,99.454-294.644,99.525z"/>
<path fill="#CCCCCC" d="M-317.61,115.324c-0.001,2.949,0.079,5.9-0.022,8.845c-0.12,3.507,0.775,6.604,3.014,9.357
	c1.47,1.808,1.336,2.335-0.368,3.818c-1.912,1.664-3.835,3.316-5.733,4.996c-1.164,1.03-2.246,1.084-3.419-0.022
	c-1.379-1.301-2.696-2.651-3.666-4.283c-0.592-0.997-1.01-1.129-1.882-0.205c-4.077,4.317-9.182,5.932-15.036,5.632
	c-7.272-0.373-12.252-5.344-12.717-12.833c-0.53-8.54,3.984-14.966,12.239-17.358c4.153-1.203,8.431-1.696,12.724-2.015
	c1.47-0.109,2.255-0.502,2.002-2.164c-0.194-1.274-0.019-2.613-0.285-3.864c-0.556-2.623-2.343-4.034-5.139-4.318
	c-3.326-0.338-6.201,1.025-7.475,3.596c-0.31,0.625-0.473,1.323-0.703,1.989c-0.374,1.086-1.054,1.615-2.275,1.462
	c-2.572-0.323-5.153-0.58-7.731-0.853c-1.489-0.158-2.059-0.935-1.749-2.413c1.06-5.062,3.844-8.874,8.515-11.063
	c6.822-3.198,13.891-3.504,20.956-0.881c6.041,2.243,8.671,6.599,8.745,13.91C-317.585,109.544-317.609,112.434-317.61,115.324z
	 M-330.498,122.222c0-0.824-0.071-1.656,0.017-2.471c0.119-1.1-0.282-1.428-1.371-1.364c-1.946,0.115-3.877,0.3-5.752,0.836
	c-4.45,1.272-6.593,4.25-6.405,8.893c0.102,2.507,0.904,4.683,3.42,5.684c2.592,1.032,4.861,0.202,6.768-1.666
	C-331.036,129.408-330.464,125.908-330.498,122.222z"/>
<path fill="#CCCCCC" d="M-208.55,136.892c-0.82,0.75-1.552,1.43-2.295,2.096c-4.843,4.343-10.578,5.298-16.698,4.006
	c-6.854-1.446-10.788-8.069-9.768-15.83c0.997-7.591,5.526-11.992,12.636-14.017c4.039-1.151,8.21-1.605,12.388-1.901
	c1.406-0.1,2.212-0.48,1.913-2.093c-0.138-0.744-0.022-1.531-0.088-2.293c-0.32-3.694-1.913-5.521-5.13-5.925
	c-3.835-0.481-6.965,1.248-8.114,4.482c-0.95,2.674-0.95,2.677-3.736,2.384c-2.168-0.228-4.337-0.454-6.503-0.705
	c-1.641-0.191-2.132-0.868-1.786-2.5c1.212-5.712,4.648-9.583,10.018-11.679c5.538-2.162,11.266-2.477,17.013-0.983
	c7.628,1.983,11.139,6.642,11.187,14.646c0.036,6.016,0.072,12.033-0.019,18.047c-0.05,3.269,0.803,6.129,2.838,8.701
	c1.652,2.089,1.559,2.444-0.435,4.196c-1.815,1.595-3.655,3.163-5.458,4.771c-1.225,1.092-2.31,1.084-3.564-0.047
	C-205.875,140.694-207.21,138.84-208.55,136.892z M-210.394,122.287c0-0.883-0.065-1.773,0.017-2.648
	c0.099-1.064-0.375-1.286-1.33-1.244c-2.127,0.092-4.232,0.305-6.26,0.973c-4.113,1.354-6.097,4.183-6.008,8.501
	c0.061,2.97,1.349,5.222,3.549,5.986c2.708,0.941,4.973,0.044,6.877-1.922C-210.942,129.238-210.446,125.829-210.394,122.287z"/>
<path fill="#CCCCCC" d="M-86.96,100.508c0.485-0.921,0.939-1.86,1.459-2.762c2.874-4.984,7.415-6.976,13.553-5.966
	c5.152,0.848,8.711,4.434,9.773,9.85c0.444,2.263,0.661,4.548,0.661,6.853c0.001,10.56,0.002,21.12-0.001,31.681
	c-0.001,2.265-0.4,2.665-2.67,2.673c-2.419,0.008-4.838,0.009-7.256-0.001c-2.246-0.009-2.623-0.406-2.628-2.719
	c-0.023-9.733-0.039-19.467-0.072-29.2c-0.005-1.361-0.179-2.711-0.622-4.006c-1.426-4.163-6.228-5.103-9.148-1.792
	c-1.555,1.763-2.072,3.942-2.363,6.184c-0.587,4.524-0.24,9.073-0.288,13.611c-0.056,5.191-0.045,10.383,0.006,15.575
	c0.016,1.669-0.697,2.373-2.32,2.357c-2.655-0.027-5.31-0.027-7.964,0c-1.54,0.016-2.254-0.641-2.251-2.231
	c0.022-15.339,0.023-30.678,0.001-46.016c-0.002-1.444,0.687-2.064,2.027-2.075c2.596-0.022,5.192-0.017,7.787-0.001
	c1.345,0.008,2.067,0.609,2.022,2.064c-0.059,1.936-0.014,3.875-0.014,5.813C-87.166,100.435-87.063,100.471-86.96,100.508z"/>
<path fill="#CCCCCC" d="M-105.954,119.709c-0.07,5.172-1.643,11.693-6.185,17.269c-7.744,9.506-24.96,9.946-31.753-3.554
	c-5.171-10.277-5.156-20.985-0.136-31.36c3.51-7.253,9.736-10.777,17.789-10.523c8.552,0.27,14.311,4.819,17.658,12.53
	C-106.677,108.456-105.963,113.105-105.954,119.709z M-119.505,118.018c0-0.412,0.006-0.824-0.001-1.236
	c-0.066-3.891-0.247-7.776-1.514-11.5c-0.86-2.529-2.634-3.985-5.371-4.113c-2.632-0.123-4.506,1.047-5.723,3.359
	c-0.581,1.103-0.99,2.265-1.211,3.482c-1.062,5.849-0.92,11.714-0.112,17.573c0.307,2.225,0.855,4.399,2.24,6.244
	c2.05,2.731,5.901,3.014,8.355,0.631c1.453-1.411,2.121-3.222,2.562-5.139C-119.576,124.256-119.493,121.141-119.505,118.018z"/>
<path fill="#CCCCCC" d="M-237.786,180.369c-28.935-0.4-54.503-9.738-76.401-28.814c-0.222-0.194-0.441-0.391-0.661-0.588
	c-0.755-0.675-1.387-1.507-0.654-2.44c0.714-0.908,1.677-0.518,2.551-0.018c14.708,8.429,30.413,14.186,47.036,17.434
	c16.205,3.166,32.503,3.87,48.906,1.742c13.809-1.792,27.159-5.275,40.007-10.661c0.379-0.159,0.769-0.329,1.17-0.395
	c1.241-0.204,2.455-0.076,3.036,1.2c0.567,1.244,0.041,2.281-1.02,3.075c-2.696,2.019-5.531,3.829-8.478,5.446
	c-13.624,7.473-28.231,11.747-43.659,13.34C-229.886,180.096-233.821,180.386-237.786,180.369z"/>
<path fill="#CCCCCC" d="M-168.992,102.514c-5.092,0-9.852,0.003-14.611-0.001c-2.482-0.002-2.849-0.376-2.855-2.871
	c-0.004-1.652,0.008-3.304-0.003-4.956c-0.009-1.51,0.622-2.253,2.237-2.248c9.735,0.035,19.47,0.033,29.205,0.002
	c1.591-0.005,2.277,0.655,2.215,2.225c-0.046,1.178-0.089,2.367,0.01,3.538c0.154,1.811-0.439,3.308-1.47,4.766
	c-5.038,7.126-10.026,14.289-15.029,21.44c-0.36,0.515-0.7,1.044-1.186,1.77c3.309,0.292,6.418,0.286,9.437,1.026
	c2.471,0.606,4.859,1.416,7.127,2.587c1.35,0.697,2.011,1.756,2.006,3.261c-0.007,2.124,0.038,4.249-0.022,6.372
	c-0.055,1.944-1.014,2.504-2.789,1.679c-10.255-4.765-20.49-4.79-30.723,0.072c-1.649,0.784-2.607,0.195-2.65-1.668
	c-0.056-2.418-0.035-4.838,0.002-7.257c0.028-1.831,0.768-3.394,1.818-4.888c5.424-7.72,10.801-15.472,16.193-23.214
	C-169.78,103.717-169.496,103.272-168.992,102.514z"/>
<path fill="#CCCCCC" d="M-169.835,144.875c2.963,0.005,5.885,0.262,8.736,1.137c1.557,0.478,2.364,1.448,2.338,3.099
	c-0.144,9.177-3.136,17.185-9.717,23.723c-0.209,0.208-0.416,0.43-0.663,0.583c-0.598,0.372-1.252,0.874-1.932,0.305
	c-0.603-0.505-0.306-1.187-0.062-1.799c1.62-4.052,3.186-8.121,4.265-12.36c0.38-1.492,0.679-2.99,0.668-4.534
	c-0.015-2.083-0.606-2.898-2.618-3.393c-2.714-0.669-5.475-0.771-8.254-0.497c-2.931,0.288-5.862,0.585-8.798,0.826
	c-0.776,0.064-1.828,0.452-2.217-0.527c-0.456-1.15,0.598-1.653,1.379-2.158C-181.57,145.96-175.814,144.982-169.835,144.875z"/>
<path fill="#CCCCCC" d="M75.044-188.775c-6.736,4.103-10.203,9.983-9.544,17.838c0.652,7.771,4.843,13.176,12.074,16.309
	c-0.557,1.205-1.098,2.416-1.673,3.611c-1.818,3.781-4.118,7.268-6.611,10.626c-1.82,2.452-3.848,4.718-6.408,6.45
	c-3.366,2.278-6.897,2.526-10.614,0.954c-1.693-0.716-3.371-1.54-5.138-1.998c-4.073-1.056-8.098-0.74-12.013,0.886
	c-1.673,0.695-3.361,1.399-5.104,1.873c-2.934,0.797-5.64-0.005-8.147-1.589c-2.671-1.688-4.717-4.02-6.58-6.52
	c-2.465-3.31-4.618-6.812-6.344-10.57c-1.853-4.033-3.209-8.222-4.021-12.586c-0.648-3.482-0.9-7-0.672-10.527
	c0.456-7.064,2.963-13.211,8.419-17.937c2.894-2.507,6.174-4.289,9.96-5.068c3.262-0.671,6.447-0.302,9.579,0.7
	c2.018,0.646,4.005,1.389,6.03,2.009c3.349,1.026,6.614,0.657,9.853-0.603c1.916-0.746,3.877-1.428,5.873-1.907
	c5.639-1.353,10.842-0.19,15.624,3.017C71.66-192.42,73.47-190.749,75.044-188.775z"/>
<path fill="#CCCCCC" d="M159.713-168.98c0,0.276,0,0.514,0,0.753c0,6.257-0.021,12.515,0.012,18.772
	c0.01,1.926,0.165,3.854,1.066,5.621c0.943,1.848,2.423,2.717,4.538,2.797c3.161,0.119,5.58-2.518,6.034-4.924
	c0.074-0.393,0.045-0.807,0.045-1.212c0.002-7.09,0.001-14.181,0.003-21.271c0-0.16,0.017-0.321,0.029-0.53
	c3.765,0,7.511,0,11.312,0c0.154,12.046-0.186,24.101,0.231,36.189c-0.126,0.01-0.282,0.035-0.439,0.035
	c-2.885,0.002-5.77-0.011-8.655,0.014c-0.491,0.004-0.615-0.166-0.654-0.62c-0.131-1.504-0.306-3.005-0.48-4.65
	c-0.213,0.186-0.348,0.264-0.428,0.379c-2.099,3.048-4.977,4.834-8.627,5.451c-3.029,0.512-5.939,0.207-8.676-1.184
	c-2.901-1.474-4.573-3.979-5.548-7.006c-0.721-2.238-1.002-4.545-1.005-6.885c-0.011-7.009-0.004-14.018-0.004-21.028
	c0-0.219,0-0.438,0-0.701C152.224-168.98,155.911-168.98,159.713-168.98z"/>
<path fill="#CCCCCC" d="M203.091-132.777c-3.765,0-7.455,0-11.21,0c-0.163-12.061,0.227-24.116-0.324-36.208
	c0.218-0.015,0.395-0.037,0.571-0.038c2.844-0.002,5.689,0.008,8.533-0.01c0.455-0.003,0.641,0.107,0.675,0.593
	c0.081,1.151,0.225,2.297,0.349,3.445c0.034,0.316,0.088,0.63,0.147,1.049c0.183-0.139,0.309-0.196,0.38-0.294
	c2.01-2.79,4.704-4.583,8.061-5.233c3.791-0.734,7.438-0.331,10.655,2.029c2.411,1.769,3.765,4.251,4.523,7.086
	c0.526,1.969,0.75,3.977,0.746,6.018c-0.014,6.969-0.005,13.937-0.005,20.906c0,0.201,0,0.401,0,0.643c-3.731,0-7.414,0-11.172,0
	c0-0.261,0-0.499,0-0.738c0-6.237,0.017-12.474-0.01-18.711c-0.008-1.882-0.086-3.766-0.909-5.532
	c-0.867-1.859-2.596-2.978-4.648-2.929c-3.858,0.092-6.544,3.012-6.373,6.888c0.051,1.156,0.011,2.316,0.011,3.474
	c0,5.607,0,11.215,0,16.822C203.091-133.279,203.091-133.041,203.091-132.777z"/>
<path fill="#CCCCCC" d="M267.242-147.329c-7.734,0-15.467,0-23.247,0c-0.062,1.061,0.276,1.961,0.765,2.804
	c1.044,1.803,2.702,2.82,4.618,3.455c2.515,0.833,5.105,0.774,7.707,0.597c2.39-0.162,4.721-0.623,7.093-1.344
	c0.495,2.539,0.977,5.013,1.486,7.622c-1.259,0.379-2.517,0.791-3.793,1.135c-2.636,0.711-5.338,0.947-8.055,1.077
	c-3.646,0.175-7.195-0.284-10.56-1.73c-5.264-2.261-8.327-6.324-9.528-11.87c-0.498-2.3-0.666-4.637-0.405-6.954
	c0.677-6.007,3.043-11.118,8.271-14.551c2.059-1.352,4.341-2.215,6.795-2.445c1.79-0.168,3.62-0.319,5.396-0.132
	c4.887,0.514,8.741,2.804,11.247,7.135c1.435,2.48,2.175,5.18,2.471,8.013c0.239,2.29,0.22,4.575-0.164,6.85
	C267.322-147.568,267.284-147.474,267.242-147.329z M257.281-154.995c-0.064-0.666-0.072-1.294-0.19-1.9
	c-0.897-4.635-4.404-6.224-8.207-5.179c-2.571,0.707-3.883,2.712-4.642,5.127c-0.194,0.618-0.28,1.271-0.424,1.952
	C248.363-154.995,252.779-154.995,257.281-154.995z"/>
<path fill="#CCCCCC" d="M108.573-173.3c0-3.177,0-6.255,0-9.367c12.763,0,25.492,0,38.293,0c0.011,0.22,0.031,0.435,0.031,0.65
	c0.002,2.681-0.013,5.363,0.013,8.044c0.005,0.527-0.124,0.69-0.674,0.686c-4.063-0.024-8.126-0.013-12.188-0.013
	c-0.221,0-0.442,0-0.739,0c0,13.515,0,26.988,0,40.506c-3.8,0-7.523,0-11.335,0c0-0.272,0-0.529,0-0.786
	c0-12.94,0-25.88-0.001-38.82c0-1.057,0.056-0.898-0.926-0.899c-3.921-0.004-7.841-0.002-11.762-0.002
	C109.067-173.3,108.847-173.3,108.573-173.3z"/>
<path fill="#CCCCCC" d="M298.205-167.716c-0.662,2.573-1.312,5.098-1.954,7.594c-1.192-0.434-2.363-0.916-3.568-1.288
	c-1.852-0.571-3.75-0.873-5.69-0.553c-1.278,0.211-2.387,0.714-2.823,2.075c-0.356,1.113-0.046,2.18,0.985,2.822
	c0.988,0.615,2.059,1.122,3.143,1.554c2.292,0.913,4.653,1.649,6.737,3.037c3.349,2.231,4.905,5.353,4.703,9.345
	c-0.238,4.7-3.072,8.265-7.763,9.929c-2.164,0.767-4.397,1.123-6.667,1.22c-4.259,0.181-8.376-0.485-12.295-2.24
	c-0.533-0.239-0.595-0.503-0.461-1.016c0.629-2.408,1.224-4.825,1.825-7.216c1.181,0.485,2.35,1.032,3.564,1.449
	c2.132,0.732,4.318,1.254,6.595,1.172c1.009-0.037,1.98-0.227,2.938-0.645c1.713-0.748,2.152-3.609,0.282-4.719
	c-1.326-0.787-2.795-1.357-4.247-1.902c-2.461-0.924-4.822-1.987-6.855-3.708c-4.097-3.47-4.177-8.717-1.84-12.691
	c1.849-3.144,4.764-4.89,8.221-5.686c5.073-1.169,10.045-0.686,14.862,1.304C297.989-167.842,298.074-167.786,298.205-167.716z"/>
<path fill="#CCCCCC" d="M91.697-168.988c3.698,0,7.364,0,11.082,0c0,12.056,0,24.103,0,36.195c-3.673,0-7.356,0-11.082,0
	C91.697-144.855,91.697-156.904,91.697-168.988z"/>
<path fill="#CCCCCC" d="M56.994-217.401c0.069,0.747,0.244,1.495,0.19,2.225c-0.549,7.393-3.886,13.054-10.494,16.617
	c-1.908,1.029-3.98,1.576-6.149,1.701c-0.89,0.052-0.913,0.011-0.976-0.879c-0.125-1.772-0.015-3.524,0.498-5.236
	c1.623-5.41,4.901-9.472,9.868-12.176C52.122-216.342,54.441-217.11,56.994-217.401z"/>
<path fill="#CCCCCC" d="M97.186-173.457c-3.191-0.026-5.121-2.026-5.647-4.039c-0.958-3.671,1.318-7.21,5.475-7.259
	c1.921-0.023,3.631,0.457,4.88,1.979c1.392,1.696,1.699,3.654,0.946,5.697c-0.724,1.964-2.239,3.057-4.279,3.431
	C98.107-173.565,97.645-173.52,97.186-173.457z"/>
<path fill="#CCCCCC" d="M475.89-100.288c-1.949,5.95-4.921,11.188-9.236,15.584c-2.461,2.508-5.487,3.268-8.882,1.996
	c-0.818-0.307-1.645-0.594-2.449-0.936c-3.782-1.608-7.529-1.496-11.304,0.073c-6.253,2.599-8.874,1.96-13.058-3.365
	c-6.832-8.694-10.454-18.513-9.74-29.663c0.426-6.653,2.993-12.306,8.882-15.956c3.827-2.372,7.942-2.965,12.253-1.364
	c7.746,2.878,5.034,2.806,13.054,0.043c6.324-2.179,11.939-1.008,16.867,3.473c0.669,0.608,1.192,1.377,1.799,2.091
	C463.784-121.794,464.703-105.977,475.89-100.288z"/>
<path fill="#CCCCCC" d="M515.968-101.721c0.85-1.925,1.492-3.353,2.113-4.791c3.73-8.628,7.475-17.25,11.159-25.898
	c0.474-1.113,1.043-1.592,2.293-1.542c2.512,0.1,5.032,0.065,7.547,0.014c1.044-0.021,1.441,0.31,1.439,1.402
	c-0.026,16.081-0.01,32.162-0.056,48.244c-0.001,0.46-0.566,1.304-0.894,1.317c-2.72,0.107-5.446,0.061-8.388,0.061
	c0-11.116,0-22.068,0-33.019c-0.152-0.051-0.304-0.103-0.456-0.154c-0.261,0.466-0.564,0.914-0.777,1.402
	c-3.402,7.817-6.817,15.628-10.159,23.471c-0.48,1.126-1.113,1.378-2.283,1.57c-3.757,0.617-5.544-0.89-6.88-4.441
	c-2.595-6.896-5.782-13.569-8.729-20.332c-0.246-0.565-0.532-1.113-0.799-1.669c-0.153,0.035-0.305,0.071-0.458,0.106
	c0,10.934,0,21.868,0,33.047c-2.998,0-5.762,0.018-8.525-0.032c-0.239-0.004-0.59-0.419-0.676-0.706
	c-0.121-0.403-0.049-0.866-0.05-1.304c-0.001-15.589,0-31.178,0.001-46.767c0-2.177,0.003-2.179,2.259-2.18
	c2.297-0.002,4.597,0.057,6.891-0.024c1.119-0.04,1.622,0.391,2.052,1.397c4.101,9.597,8.258,19.171,12.403,28.75
	C515.23-103.259,515.494-102.733,515.968-101.721z"/>
<path fill="#CCCCCC" d="M591.495-133.922c0,0.896,0,1.49,0,2.084c0,10.336,0.005,20.672-0.001,31.007
	c-0.006,10.987-6.875,18.206-17.864,18.827c-5.231,0.296-10.284-0.235-14.826-3.121c-4.6-2.923-7.07-7.187-7.628-12.566
	c-0.158-1.519-0.189-3.056-0.191-4.585c-0.016-9.844-0.01-19.687-0.004-29.531c0-0.642,0.058-1.284,0.093-2.018
	c3.404,0,6.668,0,10.21,0c0,0.66,0,1.288,0,1.916c0.001,9.844-0.001,19.687,0.006,29.531c0.001,0.928-0.027,1.869,0.105,2.783
	c0.971,6.717,6.539,10.259,13.076,8.35c3.809-1.112,6.424-4.46,6.578-8.866c0.162-4.643,0.083-9.295,0.091-13.943
	c0.01-6.07,0.039-12.141-0.026-18.21c-0.014-1.295,0.358-1.72,1.655-1.683C585.599-133.866,588.433-133.922,591.495-133.922z"/>
<path fill="#CCCCCC" d="M638.982-119.901c-2.922,0-5.758,0.036-8.59-0.045c-0.352-0.01-0.905-0.587-0.997-0.986
	c-1.638-7.167-12.127-7.116-15.472-3.722c-2.702,2.743-2.278,7.06,1.089,8.917c1.409,0.777,3.037,1.207,4.61,1.627
	c3.484,0.931,7.06,1.56,10.483,2.668c5.47,1.772,9.122,5.312,9.695,11.35c0.817,8.616-3.339,14.812-11.675,17.109
	c-5.935,1.636-11.918,1.619-17.735-0.587c-5.336-2.023-8.515-5.947-9.516-11.585c-0.112-0.632-0.086-1.288-0.138-2.165
	c3.128,0,6.12-0.035,9.109,0.048c0.334,0.009,0.821,0.635,0.945,1.06c0.75,2.568,2.431,4.244,4.864,5.178
	c3.241,1.244,6.538,1.255,9.792,0.076c2.713-0.983,4.198-3.111,4.255-5.832c0.056-2.647-1.092-4.54-4.015-5.526
	c-3.303-1.114-6.748-1.8-10.117-2.726c-1.841-0.506-3.703-0.994-5.466-1.71c-10.771-4.375-10.199-18.423-3.112-24.021
	c7.045-5.564,19.908-5.675,26.894-0.059C637.25-128.123,639.316-123.818,638.982-119.901z"/>
<path fill="#CCCCCC" d="M712.749-115.983c-3.46,0-6.562,0-9.698,0c-0.284-1.217-0.469-2.402-0.84-3.525
	c-1.252-3.789-3.861-6.055-7.855-6.478c-4.19-0.444-7.615,0.998-9.598,4.835c-0.911,1.763-1.756,3.787-1.819,5.719
	c-0.17,5.226-0.346,10.522,0.301,15.688c0.775,6.185,5.036,9.295,10.931,8.969c4.119-0.228,7.364-2.926,8.319-6.943
	c0.189-0.796,0.299-1.611,0.492-2.677c2.987,0,6.024-0.028,9.058,0.055c0.232,0.006,0.626,0.799,0.632,1.23
	c0.048,3.501-1.084,6.63-3.018,9.533c-6.919,10.384-28.428,11.014-34.847-2.642c-1.558-3.315-2.566-6.794-2.56-10.431
	c0.008-5.235-0.311-10.585,0.621-15.682c2.44-13.346,12.75-17.859,23.953-16.258c8.591,1.227,14.177,6.591,15.65,14.572
	C712.704-118.754,712.656-117.437,712.749-115.983z"/>
<path fill="#CCCCCC" d="M650.801-133.798c3.486,0,6.796,0,10.191,0c0,16.945,0,33.767,0,50.751c-3.383,0-6.729,0-10.191,0
	C650.801-99.943,650.801-116.808,650.801-133.798z"/>
<path fill="#CCCCCC" d="M461.682-151.664c1.589,7.181-6.268,16.582-12.951,15.494C447.075-142.608,455.095-152.202,461.682-151.664z
	"/>
<path fill="#CCCCCC" d="M-96.919,245.093c21.109,0.599,39.423,1.053,57.73,1.688c4.261,0.148,8.593,0.508,12.731,1.467
	c10.642,2.468,15.584,10.364,17.044,20.336c1.392,9.507,2.32,19.174,2.323,28.771c0.003,14.399-0.745,28.813-1.686,43.187
	c-0.285,4.351-1.801,8.794-3.573,12.836c-3.155,7.197-9.28,11.157-16.921,11.744c-13.004,0.998-26.054,1.523-39.094,1.91
	c-11.781,0.35-23.579,0.496-35.362,0.286c-16.36-0.291-32.715-0.948-49.067-1.574c-2.996-0.115-6.025-0.595-8.94-1.308
	c-7.503-1.836-12.735-6.24-15.427-13.709c-3.099-8.6-3.634-17.573-3.757-26.489c-0.205-14.893,0.078-29.805,0.632-44.691
	c0.2-5.374,1.299-10.836,2.816-16.015c2.975-10.156,10.519-15.78,21.117-16.213C-135.623,246.469-114.886,245.759-96.919,245.093z
	 M-92.183,265.828c0,26.336,0,52.32,0,78.382c3.657,0,7.105,0,10.636,0c0.198-1.442,0.371-2.705,0.552-4.02
	c2,1.411,3.624,2.856,5.495,3.823c6.561,3.389,13.034,0.197,14.356-7.037c0.4-2.191,0.628-4.443,0.643-6.669
	c0.07-9.944,0.1-19.89-0.006-29.833c-0.028-2.603-0.333-5.266-0.967-7.787c-2.08-8.265-9.223-10.73-16.125-5.678
	c-1.222,0.894-2.353,1.913-3.981,3.248c0-8.457,0-16.378,0-24.428C-85.273,265.828-88.637,265.828-92.183,265.828z M-32.517,323.72
	c-0.18,2.576-0.279,4.895-0.52,7.2c-0.254,2.431-1.531,3.97-4.121,4.067c-2.533,0.095-4.274-1.23-4.523-3.627
	c-0.487-4.697-0.596-9.432-0.88-14.48c7.437,0,14.306,0,21.492,0c-0.02-7.563,0.831-14.879-1.441-21.968
	c-1.664-5.194-5.332-8.575-10.651-9.837c-10.939-2.596-20.146,4.429-20.505,15.895c-0.292,9.342-0.311,18.71,0.02,28.05
	c0.234,6.601,2.997,12.185,9.496,14.869c6.163,2.546,12.282,2.215,17.563-2.22c5.655-4.748,5.769-11.21,5.087-17.949
	C-25.23,323.72-28.716,323.72-32.517,323.72z M-112.275,285.747c0,1.339,0,2.396,0,3.452c0.004,12.571-0.084,25.143,0.086,37.711
	c0.036,2.64-0.829,4.616-2.688,6.085c-1.186,0.937-2.862,1.254-4.318,1.849c-0.513-1.353-1.461-2.703-1.471-4.059
	c-0.106-13.837-0.059-27.674-0.055-41.512c0-1.134,0-2.269,0-3.449c-4.01,0-7.638,0-11.441,0c0,6.954-0.005,13.668,0.001,20.382
	c0.009,9.842-0.13,19.688,0.088,29.525c0.19,8.6,6.857,12.255,14.015,7.881c1.317-0.805,2.456-1.905,3.654-2.896
	c0.627-0.518,1.205-1.094,2.218-2.022c0,2.182,0,3.791,0,5.484c3.876,0,7.505,0,11.186,0c0-19.573,0-38.92,0-58.43
	C-104.727,285.747-108.285,285.747-112.275,285.747z M-167.119,277.268c4.22,0,8.074,0,12.297,0c0,22.518,0,44.761,0,66.915
	c4.134,0,7.886,0,11.905,0c0-22.391,0-44.564,0-67.115c4.387,0,8.511,0,12.669,0c0-3.941,0-7.499,0-11.171
	c-12.377,0-24.581,0-36.872,0C-167.119,269.67-167.119,273.228-167.119,277.268z"/>
<path fill="#CCCCCC" d="M-221.417,285.303c3.783,0,7.253,0,11.014,0c0,1.178,0,2.221,0,3.265c0,14.129-0.04,28.258,0.063,42.386
	c0.01,1.381,0.893,2.756,1.371,4.134c1.544-0.571,3.322-0.834,4.579-1.785c1.971-1.491,2.882-3.545,2.843-6.311
	c-0.18-12.762-0.079-25.528-0.079-38.293c0-1.056,0-2.111,0-3.35c3.736,0,7.275,0,10.966,0c0,19.538,0,38.991,0,58.676
	c-3.489,0-7.03,0-10.924,0c0-1.7,0-3.464,0-5.636c-2.079,1.767-3.646,3.338-5.439,4.582c-6.768,4.694-12.992,2.019-14.274-6.062
	c-0.137-0.862-0.21-1.745-0.211-2.618c-0.012-15.785-0.009-31.571-0.005-47.356C-221.514,286.464-221.459,285.992-221.417,285.303z"
	/>
<path fill="#CCCCCC" d="M-299.807,265.372c4.119,0,8.087,0,12.266,0c2.594,9.663,5.178,19.289,7.761,28.915
	c0.232,0.017,0.464,0.035,0.696,0.052c2.559-9.579,5.118-19.158,7.716-28.882c4.124,0,8.15,0,12.42,0
	c-3.04,9.755-5.666,19.533-9.142,28.999c-4.362,11.878-6.472,23.933-5.55,36.567c0.31,4.253,0.049,8.548,0.049,13.028
	c-3.888,0-7.622,0-11.702,0c0-3.782-0.246-7.566,0.044-11.309c1.077-13.921-1.278-27.233-6.112-40.287
	c-3.001-8.105-5.283-16.476-7.875-24.731C-299.464,266.997-299.599,266.24-299.807,265.372z"/>
<path fill="#CCCCCC" d="M-229.468,315.292c-0.252,5.727-0.104,11.507-0.852,17.169c-1.038,7.86-7.358,12.881-15.234,12.868
	c-7.797-0.012-13.979-5.143-15.187-12.991c-0.529-3.436-0.561-6.976-0.531-10.466c0.071-8.068-0.196-16.187,0.632-24.187
	c0.883-8.531,6.728-13.033,15.169-13.008c8.354,0.025,14.132,4.638,15.123,13.136c0.67,5.749,0.128,11.64,0.128,17.467
	C-229.969,315.284-229.718,315.288-229.468,315.292z M-240.827,315.308c0-4.67,0.04-9.34-0.027-14.009
	c-0.018-1.239,0.027-2.795-0.657-3.634c-0.99-1.213-2.614-2.614-3.975-2.62c-1.362-0.007-2.923,1.418-4.024,2.572
	c-0.617,0.646-0.645,2.014-0.65,3.058c-0.044,9.631-0.051,19.263,0.009,28.895c0.007,1.129,0.154,2.539,0.821,3.315
	c0.928,1.079,2.423,2.339,3.649,2.313c1.368-0.029,3.022-1.153,3.958-2.289c0.756-0.917,0.83-2.556,0.858-3.882
	C-240.769,324.455-240.828,319.881-240.827,315.308z"/>
<path fill="#CCCCCC" d="M-81.524,314.711c0-5.056-0.018-10.113,0.007-15.169c0.013-2.591,1.971-4.33,4.952-4.512
	c2.663-0.163,4.137,1.18,4.155,3.736c0.074,10.676,0.085,21.353-0.006,32.028c-0.021,2.502-1.239,4.298-4.139,4.168
	c-2.987-0.134-4.967-2.031-4.974-4.791c-0.013-5.154-0.004-10.307-0.004-15.461C-81.53,314.711-81.527,314.711-81.524,314.711z"/>
<path fill="#CCCCCC" d="M-32.501,307.68c-3.553,0-6.53,0-10.002,0c0.251-3.334,0.38-6.508,0.763-9.65
	c0.293-2.401,2.11-3.033,4.269-3.033c2.187,0,3.923,0.721,4.204,3.112C-32.907,301.182-32.762,304.28-32.501,307.68z"/>
<g>
	<path fill="#CCCCCC" d="M502,266.316c3.028-6.365,6.113-12.703,9.076-19.098c11.727-25.311,23.428-50.633,35.089-75.975
		c0.781-1.698,1.548-2.63,3.688-2.626c41.059,0.076,82.117,0.056,123.176,0.062c0.83,0,1.66,0.088,2.739,0.149
		c0,11.326,0,22.513,0,34.256c0.729-0.614,1.102-0.822,1.33-1.135c10.177-14.022,34.848-12.675,43.335,5.375
		c7.591,16.144,6.404,32.41-3.276,47.455c-6.616,10.282-21.193,14.068-32.246,9.193c-1.866-0.823-3.627-2.043-5.177-3.381
		c-1.53-1.321-2.731-3.024-4.51-5.054c0,3.073,0,5.63,0,8.315c-3.832,0-7.281,0-11.018,0c0-31.278,0-62.473,0-93.669
		c-0.189-0.057-0.379-0.115-0.568-0.172c-0.443,0.86-0.919,1.704-1.324,2.581c-14.123,30.536-28.264,61.064-42.303,91.639
		c-0.93,2.024-1.935,2.714-4.176,2.709c-37.945-0.079-75.89-0.057-113.835-0.057C502,266.693,502,266.504,502,266.316z
		 M713.528,228.472c-0.883-4.69-1.351-9.508-2.742-14.042c-2.309-7.525-8.364-11.404-16.638-11.431
		c-7.715-0.025-13.686,3.969-16.012,11.45c-1.383,4.45-2.288,9.142-2.676,13.786c-0.536,6.409-0.027,12.781,3.263,18.637
		c6.027,10.728,21.313,12.073,28.782,2.359C712.171,243.162,712.801,235.904,713.528,228.472z"/>
	<path fill="#CCCCCC" d="M792,217.605c-3.387,0.091-6.775,0.253-10.159,0.199c-0.542-0.009-1.419-0.911-1.55-1.526
		c-2.052-9.673-8.285-12.891-15.593-13.259c-7.717-0.389-14.183,3.896-17.206,12.142c-3.492,9.524-3.479,19.306-0.139,28.855
		c2.867,8.198,8.688,12.03,16.694,11.829c7.166-0.179,13.065-4.556,15.327-12.455c1.024-3.578,2.62-4.422,5.868-4.018
		c2.231,0.278,4.504,0.226,6.758,0.322c0,0.189,0,0.378,0,0.566c-1.695,4.556-2.907,9.373-5.196,13.608
		c-3.677,6.803-9.965,10.268-17.518,11.628c-18.517,3.334-34.857-9.475-36.292-28.253c-0.777-10.164-0.084-20.013,4.842-29.126
		c5.35-9.897,14.036-14.667,25.063-15.422c8.005-0.549,15.421,0.844,21.328,6.898c4.036,4.136,6.108,9.201,7.193,14.764
		c0.139,0.715,0.384,1.41,0.58,2.114C792,216.849,792,217.227,792,217.605z"/>
	<path fill="#CCCCCC" d="M502,268.015c1.947,0.111,3.893,0.222,6.138,0.35c0,2.99,0,5.795,0,8.6c0,2.724,0,5.448,0,8.163
		c0.342,0.029,0.609,0.118,0.662,0.048c5.623-7.578,19.676-6.259,23.284,5.585c2.244,7.367,1.581,14.544-2.537,21.211
		c-3.84,6.217-15.123,9.195-21.624,1.112c-0.133,1.395-0.242,2.535-0.39,4.09c-1.882-0.153-3.707-0.301-5.532-0.449
		C502,300.489,502,284.252,502,268.015z M527.473,299.326c-0.6-2.961-0.849-5.72-1.748-8.248c-1.135-3.191-3.721-4.795-7.167-5.07
		c-3.351-0.267-6.43,0.432-8.094,3.452c-3.261,5.916-3.772,12.229-1.001,18.471c1.502,3.383,4.518,4.94,8.261,4.9
		c3.71-0.04,6.393-1.875,7.674-5.223C526.423,304.929,526.825,302.012,527.473,299.326z"/>
	<path fill="#CCCCCC" d="M792,301.999c-0.472,1.714-0.936,3.429-1.416,5.141c-2.884,10.286-15.289,14.752-23.769,6.7
		c0,5.792,0,11.302,0,17.035c-2.041,0-3.781,0-5.766,0c0-16.251,0-32.583,0-49.131c1.639,0,3.359,0,5.294,0
		c0.068,1.319,0.134,2.604,0.213,4.154c0.41-0.272,0.764-0.388,0.93-0.632c5.214-7.686,18.987-6.09,22.841,4.303
		c0.618,1.666,1.118,3.376,1.673,5.066C792,297.09,792,299.545,792,301.999z M786.192,299.244c-0.587-2.937-0.82-5.506-1.64-7.871
		c-1.146-3.304-3.693-5.06-7.267-5.36c-3.469-0.291-6.607,0.474-8.273,3.643c-3.084,5.864-3.641,12.08-0.878,18.239
		c1.523,3.396,4.498,4.963,8.235,4.937c3.705-0.026,6.414-1.829,7.688-5.196C785.104,304.865,785.548,301.867,786.192,299.244z"/>
	<path fill="#CCCCCC" d="M708.287,281.682c1.78,0,3.433,0,5.263,0c0.094,1.408,0.179,2.682,0.297,4.449
		c2.928-3.369,6.056-5.565,10.314-5.653c4.365-0.09,7.624,1.685,9.404,4.992c3.01-1.618,5.693-3.807,8.727-4.542
		c7.479-1.811,13.231,2.757,13.421,10.421c0.21,8.466,0.048,16.941,0.048,25.58c-1.966,0-3.708,0-5.825,0
		c0-1.229,0.012-2.328-0.002-3.427c-0.088-7.168-0.158-14.337-0.286-21.504c-0.046-2.538-0.98-4.731-3.52-5.616
		c-2.843-0.99-5.61-0.612-7.93,1.495c-2.566,2.331-3.319,5.378-3.314,8.71c0.01,6.693,0.003,13.386,0.003,20.295
		c-1.933,0-3.668,0-5.729,0c-0.053-0.976-0.151-1.968-0.153-2.96c-0.014-6.418-0.007-12.837-0.008-19.255
		c0-0.566,0.038-1.136-0.013-1.698c-0.248-2.761-0.449-5.601-3.612-6.758c-2.749-1.006-6.582,0.254-8.691,2.753
		c-2.42,2.867-2.699,6.362-2.735,9.875c-0.061,5.938-0.017,11.876-0.017,18.037c-1.926,0-3.66,0-5.644,0
		C708.287,305.25,708.287,293.611,708.287,281.682z"/>
	<path fill="#CCCCCC" d="M635.199,268.37c0,16.259,0,32.268,0,48.503c-1.751,0-3.387,0-5.256,0
		c-0.151-1.203-0.306-2.442-0.481-3.834c-7.927,9.346-21.678,4.632-24.452-6.499c-1.476-5.921-1.718-11.694,0.626-17.449
		c3.919-9.62,16.991-11.493,22.463-4.08c0.219,0.296,0.507,0.542,1.176,1.245c0-6.211,0-11.96,0-17.887
		C631.374,268.37,633.114,268.37,635.199,268.37z M629.767,300.321c-0.822-3.298-1.328-6.677-2.529-9.789
		c-1.332-3.451-4.394-4.707-8.016-4.584c-3.735,0.127-6.678,1.683-7.923,5.285c-1.907,5.517-1.937,11.122,0.461,16.543
		c1.411,3.191,3.937,4.975,7.522,5.051c3.741,0.08,6.737-1.448,8.303-4.805C628.671,305.692,629.032,303.022,629.767,300.321z"/>
	<path fill="#CCCCCC" d="M558.868,312.542c-4.133,4.123-8.798,5.926-14.32,5.379c-5.122-0.508-8.632-3.729-9.355-8.669
		c-0.753-5.146,1.529-9.799,6.335-11.325c3.818-1.212,7.913-1.616,11.915-2.16c4.219-0.574,5.108-1.132,5.275-4.09
		c0.182-3.232-1.319-5.061-4.846-5.902c-5.983-1.426-9.208,0.315-11.855,6.444c-1.559,0-3.141,0-4.705,0
		c-0.649-4.757,1.893-8.889,6.607-10.546c4.389-1.543,8.887-1.657,13.351-0.307c5.188,1.569,7.372,4.587,7.438,10.299
		c0.067,5.757,0.103,11.518-0.022,17.273c-0.058,2.673,0.367,4.546,3.885,3.875c-0.322,1.812,1.445,3.951-1.652,4.69
		C562.904,318.461,560.308,317.001,558.868,312.542z M558.788,299.393c-3.088,0.548-5.771,0.971-8.43,1.512
		c-2.015,0.41-4.238,0.576-5.925,1.588c-1.404,0.843-2.751,2.644-3.063,4.23c-0.411,2.085,0.39,4.253,2.597,5.485
		c4.636,2.587,12.999-0.568,14.333-5.674C558.878,304.318,558.643,301.891,558.788,299.393z"/>
	<path fill="#CCCCCC" d="M705.324,312.706c-0.458,2.034,1.152,4.218-1.949,4.841c-4.029,0.81-6.329-0.465-8.008-4.912
		c-3.834,3.829-8.352,5.749-13.776,5.324c-5.452-0.427-9.221-3.751-9.811-8.792c-0.674-5.753,1.981-10.249,7.439-11.699
		c3.525-0.937,7.232-1.2,10.862-1.732c2.428-0.356,5.03-0.308,5.215-3.834c0.173-3.295-1.113-5.119-4.616-6.061
		c-5.653-1.521-8.908,0.197-11.695,5.27c-0.615,1.119-3.233,1.138-5.044,1.699c-0.694-5.337,1.862-9.468,6.555-11.133
		c4.383-1.555,8.879-1.657,13.336-0.326c5.075,1.516,7.388,4.605,7.46,9.99c0.079,5.938,0.116,11.881-0.024,17.816
		C701.204,311.836,701.762,313.47,705.324,312.706z M695.035,299.434c-1.936,0.355-3.685,0.652-5.424,0.999
		c-2.661,0.531-5.38,0.89-7.957,1.697c-3.205,1.004-4.182,3.004-3.595,6.327c0.573,3.239,2.937,4.812,6.921,4.606
		C692.606,312.668,695.896,308.241,695.035,299.434z"/>
	<path fill="#CCCCCC" d="M600.227,316.956c-1.952,0-3.704,0-5.852,0c0-1.121,0.003-2.117,0-3.113
		c-0.024-6.694,0.044-13.39-0.106-20.081c-0.104-4.637-1.705-6.9-4.896-7.615c-4.493-1.006-8.752,0.691-10.396,4.735
		c-1,2.457-1.436,5.268-1.535,7.941c-0.22,5.926-0.069,11.866-0.069,18.038c-1.966,0-3.772,0-5.754,0c0-11.741,0-23.378,0-35.173
		c1.792,0,3.444,0,5.273,0c0.116,1.344,0.227,2.626,0.369,4.269c1.025-0.936,1.794-1.698,2.625-2.387
		c4.081-3.385,8.648-3.894,13.527-2.138c4.556,1.64,6.676,5.187,6.767,9.788C600.346,299.686,600.227,308.158,600.227,316.956z"/>
	<path fill="#CCCCCC" d="M670.909,293.376c-2.009,0-3.688,0-5.563,0c-0.18-0.436-0.457-0.918-0.58-1.436
		c-0.837-3.532-3.003-5.56-6.64-5.939c-3.787-0.395-7.104,0.643-8.88,4.143c-3.074,6.057-3.164,12.38-0.221,18.507
		c1.534,3.195,4.585,4.275,8.06,4.172c3.459-0.103,5.525-2.183,6.95-5.008c1.927-3.821,1.865-3.852,6.562-3.102
		c0.281,6.201-4.969,12.305-11.278,13.11c-10.405,1.329-18.046-5.116-18.576-15.637c-0.251-4.977,0.233-9.8,2.873-14.175
		c3.936-6.523,12.786-9.431,19.789-6.386C668.337,283.769,670.343,287.939,670.909,293.376z"/>
</g>
<g>
	<path fill="#CCCCCC" d="M56.736,94.745c-1.188-0.863-2.51-1.5-3.817-2.161c0,0,0,0,0,0c-1.754-1.015-3.532-1.988-5.333-2.919
		c0,0,0,0,0,0c-1.67-0.922-3.34-1.844-5.01-2.766c0,0,0,0,0,0c-0.306-0.168-0.606-0.348-0.919-0.503
		c-1.12-0.554-2.156-1.265-3.319-1.737c0,0,0,0,0,0c-0.444-0.41-1.013-0.609-1.529-0.894c-2.233-1.234-4.48-2.444-6.721-3.663
		c-1.035-0.569-2.068-1.142-3.106-1.706c-1.897-1.03-3.797-2.054-5.696-3.081c-1.377-0.763-2.715-1.532-4.096-2.287
		C15.451,72.077,14,71.137,12,70.192c0,0,0,0.019,0,0.019C9,68.802,6.722,67,4.024,66c-0.52,0-1.04,0-1.56,0
		c-0.074,0-0.149,0-0.223,0c-0.613,0-1.226-0.012-1.838-0.034c-0.241-0.009-0.355,0.032-0.348,0.272C0.075,66.962,0,67.672,0,68.397
		c0,1.671,0,3.342,0,5.013c0,1.597,0,3.193,0,4.79c0,1.745,0,3.491,0,5.236c0,1.522,0,3.045,0,4.567c0,1.3,0,2.599,0,3.899
		c0,1.188,0,2.377,0,3.565c0,1.077,0,2.154,0,3.231c0,1.225,0,2.451,0,3.676c0,1.263,0,2.525,0,3.788c0,1.04,0,2.079,0,3.119
		c0,1.114,0,2.228,0,3.342c0,1.225,0,2.451,0,3.676c0,1.374,0,2.748,0,4.122c0,1.522,0,3.045,0,4.567
		c0,0.062,0.056,0.127,0.068,0.194C0.045,125.117,0,125.052,0,124.987c0,0.297,0,0.594,0,0.891c0,0.371-0.083,0.891,0.103,1.077
		C0.289,127.141,0.867,127,1.239,127c0.557,0,1.114,0,1.671,0c0.594,0,1.188,0,1.782,0c0.138-1,0.273-0.186,0.416-0.265
		c1.686-0.924,3.375-1.845,5.061-2.769c2.983-1.634,5.965-3.268,8.946-4.905c1.731-0.951,3.459-1.908,5.189-2.863
		c3.135-1.702,6.278-3.388,9.399-5.116c0.847-0.469,1.742-0.864,2.52-1.455c1.244-0.523,2.378-1.258,3.574-1.873
		c0.948-0.488,1.854-1.059,2.778-1.593c0.715-0.271,1.344-0.704,2.01-1.067c3.354-1.827,6.713-3.644,10.057-5.488
		c0.838-0.462,1.724-0.846,2.388-1.601C58.011,96.889,57.94,95.619,56.736,94.745z"/>
	<path fill="#CCCCCC" d="M294.66,91.565c-0.279-0.001-0.397,0.037-0.521,0.346c-1.553,3.874-3.075,7.742-4.637,11.612
		c-0.286,0.709-0.551,1.417-0.89,2.256c-0.469-1.098-0.871-2.041-1.265-2.992c-1.483-3.583-2.956-7.167-4.431-10.753
		c-0.134-0.325-0.313-0.484-0.699-0.476c-1.281,0.026-2.561,0.008-3.842,0.01c-0.63,0.001-0.648,0.043-0.401,0.61
		c0.781,1.795,1.552,3.594,2.33,5.391c1.122,2.594,2.246,5.186,3.369,7.78c0.844,1.949,1.686,3.899,2.535,5.846
		c0.067,0.153,0.059,0.273-0.007,0.418c-0.48,1.06-0.956,2.122-1.429,3.186c-1.059,2.38-2.114,4.761-3.178,7.139
		c-0.111,0.248-0.12,0.378,0.205,0.377c1.355-0.005,2.711-0.005,4.066-0.001c0.264,0.001,0.381-0.119,0.476-0.364
		c0.24-0.62,0.524-1.222,0.787-1.833c1.17-2.714,2.341-5.427,3.508-8.142c1.327-3.088,2.65-6.178,3.973-9.267
		c1.062-2.478,1.937-4.963,3.016-7.434c0.509-1.164,1.376-2.365,1.376-3.483c0-0.074,0-0.149,0-0.223
		C297.971,91.568,296.164,91.571,294.66,91.565z"/>
	<path fill="#CCCCCC" d="M105.956,93.155c-2.58,0.015-5.161,0.007-7.742,0.007c-2.525,0-5.05-0.001-7.574,0
		c-0.751,0-0.753,0.003-0.754,0.729c-0.002,1.207-0.002,2.413,0,3.62c0.001,0.733,0.004,0.735,0.742,0.735
		c3.49,0.001,6.981,0.008,10.471-0.009c0.441-0.002,0.593,0.119,0.533,0.563c-0.368,2.746-1.489,5.11-3.72,6.799
		c-3.611,2.733-7.698,3.34-11.923,1.951c-5.15-1.693-8.183-5.407-8.89-10.793c-0.664-5.063,0.963-9.346,5.014-12.565
		c4.74-3.767,11.907-3.481,16.348,0.619c0.347,0.321,0.527,0.255,0.801-0.044c0.79-0.861,1.593-1.71,2.404-2.551
		c0.738-0.766,0.758-0.774-0.04-1.449c-3.971-3.358-8.598-4.691-13.718-4.2c-4.5,0.431-8.302,2.415-11.372,5.733
		c-3.874,4.187-5.637,9.136-4.894,14.814c0.776,5.933,3.805,10.521,8.931,13.61c4.337,2.613,9.056,3.188,13.957,2.039
		c4.525-1.061,8.025-3.581,10.292-7.688c1.959-3.55,2.351-7.374,1.886-11.336C106.653,93.261,106.398,93.152,105.956,93.155z"/>
	<path fill="#CCCCCC" d="M181.934,90.896c0.001-0.477-0.178-0.607-0.621-0.597c-0.965,0.022-1.93,0.006-2.896,0.006
		c-1.345,0-1.345,0-1.418,1.357c-0.007,0.125,0.045,0.288-0.091,0.356c-0.148,0.074-0.226-0.085-0.313-0.168
		c-1.793-1.688-3.93-2.331-6.368-2.223c-3.276,0.144-5.873,1.594-7.928,4.051c-4.843,5.79-3.335,15.106,3.871,18.548
		c2.819,1.347,5.707,1.527,8.582,0.102c0.823-0.408,1.483-1.035,2.183-1.671c0.051,1.092,0.12,2.16-0.021,3.228
		c-0.51,3.871-3.537,5.761-7.051,5.23c-2.213-0.334-3.701-1.68-4.695-3.627c-0.139-0.272-0.222-0.536-0.647-0.346
		c-1.236,0.553-2.486,1.074-3.737,1.593c-0.316,0.131-0.374,0.291-0.216,0.593c1.26,2.416,2.963,4.401,5.487,5.555
		c2.714,1.241,5.529,1.326,8.373,0.547c2.575-0.705,4.521-2.25,5.839-4.579c1.134-2.005,1.624-4.199,1.64-6.461
		C181.957,105.226,181.922,98.061,181.934,90.896z M175.178,106.956c-2.624,2.43-6.603,2.084-8.928-0.744
		c-2.254-2.741-2.032-7.525,0.465-10.029c3.151-3.159,8.15-2.229,9.959,1.852c0.472,1.064,0.724,2.293,0.715,3.053
		C177.347,103.599,176.758,105.493,175.178,106.956z"/>
	<path fill="#CCCCCC" d="M242.613,84.497c-2.134-1.83-4.688-2.497-7.445-2.507c-3.08-0.011-6.237-0.003-9.317-0.002
		c-0.774,0-0.851,0.001-0.851,0.799c0,4.899,0,9.798,0,14.697c0,4.936,0,9.873,0,14.809c0,0.773,0.077,0.774,0.819,0.775
		c1.113,0.001,2.266-0.029,3.378,0.013c0.56,0.021,0.743-0.144,0.739-0.713c-0.025-3.637,0.006-7.274-0.014-10.912
		c-0.003-0.52,0.168-0.665,0.67-0.652c1.205,0.031,2.415,0.007,3.621,0.011c1.203,0.004,2.423,0.095,3.603-0.142
		c3.206-0.644,5.667-2.377,7.147-5.322c0.884-1.758,1.009-3.662,0.696-5.605C245.312,87.599,244.228,85.882,242.613,84.497z
		 M237.353,96.156c-0.449,0.091-0.908,0.187-1.363,0.192c-1.818,0.022-3.636-0.004-5.454,0.018
		c-0.457,0.005-0.613-0.132-0.604-0.597c0.025-1.447,0.009-2.894,0.009-4.341c0-1.447,0.012-2.894-0.008-4.341
		c-0.006-0.417,0.139-0.543,0.547-0.54c1.929,0.017,3.859-0.018,5.788,0.014c2.379,0.04,4.207,1.992,4.622,4.101
		C241.328,92.884,239.544,95.714,237.353,96.156z"/>
	<path fill="#CCCCCC" d="M145.813,89.585c-6.834-0.084-11.73,5.1-11.848,11.486c-0.125,6.835,4.762,11.963,11.331,12.193
		c6.854,0.24,12.16-4.932,12.15-11.836C157.437,94.295,152.245,89.663,145.813,89.585z M150.423,106.44
		c-1.2,1.404-2.791,2.109-4.664,2.103c-3.625-0.006-6.507-2.914-6.616-6.667c-0.072-2.453,0.635-4.578,2.586-6.172
		c3.199-2.613,8.084-1.518,9.776,2.257C152.852,100.966,152.616,103.874,150.423,106.44z"/>
	<path fill="#CCCCCC" d="M120.182,89.584c-6.856-0.008-11.73,5.25-11.734,11.721c-0.003,6.865,5.048,11.924,11.684,11.957
		c6.751,0.034,11.791-5.033,11.791-11.79C132.011,94.348,126.684,89.591,120.182,89.584z M124.724,106.668
		c-3.003,3.081-8.411,2.41-10.413-2.02c-0.515-1.139-0.694-2.135-0.688-3.296c0.017-3.36,2.078-6.154,5.084-6.893
		c3.726-0.916,7.341,1.608,7.957,5.581C127.052,102.543,126.53,104.815,124.724,106.668z"/>
	<path fill="#CCCCCC" d="M213.412,96.55c-1.858-4.549-6.039-7.51-11.023-6.909c-2.851,0.344-5.193,1.623-6.987,3.838
		c-2.196,2.711-2.884,5.868-2.58,9.295c0.541,6.11,5.294,10.496,11.403,10.501c3.983-0.003,7.085-1.744,9.521-4.814
		c0.249-0.314,0.196-0.483-0.129-0.693c-0.935-0.604-1.851-1.237-2.773-1.861c-0.864-0.585-0.879-0.598-1.512,0.237
		c-2.454,3.238-8.202,3.428-10.465-0.576c-0.223-0.394-0.241-0.57,0.233-0.764c2.489-1.02,4.964-2.076,7.444-3.119
		c2.36-0.992,4.718-1.992,7.085-2.969c0.438-0.181,0.575-0.383,0.344-0.831C213.752,97.456,213.595,96.997,213.412,96.55z
		 M207.653,96.844c-3.13,1.307-6.252,2.631-9.369,3.968c-0.445,0.191-0.623,0.092-0.602-0.372c0.157-3.46,3.111-6.252,6.236-6.299
		c1.648,0.125,2.988,0.681,3.927,2.018C208.079,96.494,208.078,96.667,207.653,96.844z"/>
	<path fill="#CCCCCC" d="M275.954,101.678c0.004-1.167-0.052-2.327-0.223-3.482c-0.399-2.679-1.871-4.651-4.17-5.95
		c-2.35-1.328-4.937-1.579-7.567-1.105c-3.002,0.541-5.196,2.181-6.444,5.016c-0.139,0.316-0.109,0.428,0.229,0.555
		c1.175,0.442,2.337,0.919,3.496,1.4c0.264,0.11,0.427,0.128,0.575-0.169c0.189-0.378,0.369-0.792,0.662-1.079
		c1.241-1.215,2.728-1.704,4.482-1.529c1.437,0.143,2.582,0.759,3.462,1.849c0.54,0.668,0.835,1.469,0.817,2.36
		c-0.007,0.341-0.139,0.383-0.404,0.234c-0.289-0.163-0.573-0.328-0.898-0.42c-1.449-0.413-2.917-0.508-4.423-0.465
		c-1.391,0.04-2.705,0.326-3.994,0.8c-1.344,0.495-2.529,1.27-3.444,2.346c-1.447,1.701-1.77,3.769-1.39,5.893
		c0.386,2.152,1.683,3.74,3.601,4.784c1.597,0.869,3.317,1.149,5.128,1.029c1.657-0.11,3.194-0.497,4.543-1.526
		c0.422-0.322,0.718-0.784,1.279-1.097c0,0.53,0.019,0.987-0.006,1.442c-0.022,0.395,0.14,0.515,0.52,0.509
		c1.151-0.017,2.303-0.033,3.452,0.006c0.553,0.019,0.729-0.132,0.725-0.708C275.936,108.807,275.942,105.243,275.954,101.678z
		 M271.23,104.788c-0.316,1.488-1.199,2.58-2.38,3.48c-0.988,0.754-2.109,1.194-3.329,1.181c-1.346-0.015-2.641-0.326-3.534-1.49
		c-0.328-0.427-0.464-0.917-0.406-1.423c-0.125-1.455,1.157-2.833,2.504-3.266c1.168-0.376,2.357-0.49,3.597-0.374
		c1.042,0.097,2.052,0.223,2.997,0.69C271.293,103.89,271.377,104.096,271.23,104.788z"/>
	<path fill="#CCCCCC" d="M191,111.208c0-10.932,0-21.864,0-32.797c0-0.739-0.253-0.741-0.983-0.742
		c-1.244-0.002-2.613-0.001-3.856,0c-0.77,0.001-0.466,0.002-0.466,0.758C185.694,83.976,186,89.526,186,95.076
		c0,1.596,0,3.192,0,4.789c0,4.028-0.368,8.055-0.369,12.083c0,0.342-0.232,0.671,0.298,0.663c1.429-0.021,2.766-0.012,4.195-0.004
		c0.323,0.002,0.689-0.109,0.673-0.452C190.782,111.84,191,111.524,191,111.208z"/>
	<path fill="#CCCCCC" d="M253.669,99.727c0-5.681-0.009-11.362,0.013-17.043c0.002-0.575-0.17-0.729-0.724-0.709
		c-1.112,0.04-2.167,0.011-3.281,0.012C248.942,81.988,249,81.99,249,82.713c0,4.938,0,9.877,0,14.815s0,9.877,0,14.815
		c0,0.723-0.058,0.724,0.678,0.725c1.114,0.001,2.199-0.028,3.311,0.012c0.555,0.02,0.712-0.135,0.709-0.71
		C253.673,108.156,253.669,103.942,253.669,99.727z"/>
</g>
<g>
	<path fill="#CCCCCC" d="M112.373-30.824c0-21.344,0-42.456,0-63.757c0.708,0,1.34-0.009,1.972,0.001
		c6.009,0.095,12.038-0.071,18.022,0.369c5.626,0.414,8.56,3.267,9.444,8.829c0.618,3.887,0.886,7.863,0.914,11.802
		c0.066,9.209-0.078,18.419-0.209,27.628c-0.022,1.557-0.318,3.127-0.636,4.66c-1.278,6.154-4.472,9.162-10.709,10.091
		c-1.496,0.223-3.019,0.345-4.532,0.36C121.934-30.795,117.228-30.824,112.373-30.824z M121.228-87.26c0,16.538,0,32.712,0,48.982
		c1.747,0,3.37,0.036,4.991-0.007c3.907-0.103,5.845-1.63,6.506-5.449c0.405-2.337,0.594-4.736,0.614-7.11
		c0.071-8.455,0.068-16.911,0-25.367c-0.017-2.1-0.249-4.221-0.622-6.289c-0.449-2.495-2.072-4.072-4.604-4.378
		C125.871-87.147,123.595-87.139,121.228-87.26z"/>
	<path fill="#CCCCCC" d="M290.948-30.815c-2.53,0-5.129,0.036-7.724-0.039c-0.393-0.011-0.998-0.469-1.108-0.839
		c-0.242-0.813-0.307-1.701-0.31-2.559c-0.016-5.802,0.003-11.604,0.009-17.406c0-0.434-0.006-0.868-0.029-1.301
		c-0.194-3.658-1.378-5-4.982-5.336c-1.712-0.159-3.451-0.027-5.35-0.027c0,9.118,0,18.194,0,27.389c-3.007,0-5.843,0-8.781,0
		c0-21.148,0-42.272,0-63.418c0.056-0.046,0.139-0.172,0.22-0.171c6.554,0.076,13.121-0.052,19.659,0.321
		c4.618,0.263,7.112,2.582,7.518,7.092c0.464,5.159,0.443,10.385,0.274,15.571c-0.148,4.521-2.669,7.554-7.379,8.983
		c0.664,0.217,0.984,0.344,1.315,0.426c4.05,1.005,6.08,3.239,6.258,7.407c0.185,4.331,0.069,8.673,0.134,13.01
		C290.725-38.143,290.85-34.574,290.948-30.815z M271.436-66.632c2.165,0,4.172,0.12,6.159-0.031
		c2.414-0.184,3.95-1.261,4.066-3.463c0.244-4.623,0.142-9.27,0.02-13.903c-0.033-1.266-0.867-2.52-2.242-2.688
		c-2.642-0.321-5.315-0.378-8.002-0.546C271.436-80.149,271.436-73.447,271.436-66.632z"/>
	<path fill="#CCCCCC" d="M170.749-94.498c0,2.493,0,4.859,0,7.41c-5.179,0-10.298,0-15.552,0c0,6.707,0,13.231,0,19.966
		c4.735,0,9.471,0,14.328,0c0,2.609,0,5.01,0,7.609c-4.803,0-9.545,0-14.365,0c0,7.105,0,14.014,0,21.106c5.222,0,10.348,0,15.561,0
		c0,2.592,0,5.001,0,7.502c-8.126,0-16.185,0-24.367,0c0-21.172,0-42.341,0-63.593C154.461-94.498,162.519-94.498,170.749-94.498z"
		/>
	<path fill="#CCCCCC" d="M183.205-59.607c0,7.206,0,14.114,0,21.198c5.215,0,10.34,0,15.561,0c0,2.583,0,4.992,0,7.498
		c-8.098,0-16.149,0-24.334,0c0-21.164,0-42.32,0-63.573c8.059,0,16.113,0,24.301,0c0,2.384,0,4.786,0,7.364
		c-5.084,0-10.204,0-15.472,0c0,6.737,0,13.303,0,20.057c4.765,0,9.513,0,14.357,0c0,2.547,0,4.91,0,7.456
		C192.86-59.607,188.122-59.607,183.205-59.607z"/>
	<path fill="#CCCCCC" d="M257.857-67.107c0,2.656,0,5.015,0,7.545c-4.819,0-9.561,0-14.418,0c0,7.078,0,13.985,0,21.072
		c5.111,0,10.23,0,15.478,0c0,2.585,0,4.997,0,7.544c-8.03,0-16.116,0-24.301,0c0-21.138,0-42.253,0-63.502
		c8.06,0,16.147,0,24.332,0c0,2.407,0,4.811,0,7.389c-5.175,0-10.295,0-15.519,0c0,6.703,0,13.233,0,19.951
		C248.186-67.107,252.928-67.107,257.857-67.107z"/>
	<path fill="#CCCCCC" d="M202.409-30.942c-0.07-3.904-0.118-7.581,1.487-11.32c6.107-14.229,11.906-28.59,17.818-42.903
		c0.242-0.587,0.464-1.182,0.761-1.943c-6.755,0-13.3,0-19.981,0c0-2.504,0-4.899,0-7.384c9.462,0,18.915,0,28.517,0
		c-0.143,3.536,0.309,6.926-1.139,10.384c-6.108,14.582-11.968,29.267-17.915,43.916c-0.22,0.542-0.411,1.097-0.696,1.859
		c6.639,0,13.102,0,19.667,0c0,2.537,0,4.898,0,7.39C221.503-30.942,212.051-30.942,202.409-30.942z"/>
	<path fill="#CCCCCC" d="M39.811-51.454c0,1.908,0,3.672,0,5.563c-6.397,0-12.735,0-19.17,0c0-1.85,0-3.656,0-5.563
		C27.022-51.454,33.325-51.454,39.811-51.454z"/>
	<path fill="#CCCCCC" d="M20.609-38.356c0-1.947,0-3.717,0-5.609c6.372,0,12.679,0,19.133,0c0,1.817,0,3.668,0,5.609
		C33.386-38.356,27.076-38.356,20.609-38.356z"/>
	<path fill="#CCCCCC" d="M83.069-66.418c0,1.938,0,3.706,0,5.598c-6.407,0-12.747,0-19.172,0c0-1.878,0-3.687,0-5.598
		C70.287-66.418,76.591-66.418,83.069-66.418z"/>
	<path fill="#CCCCCC" d="M63.882-38.375c0-1.892,0-3.662,0-5.573c6.36,0,12.703,0,19.152,0c0,1.839,0,3.653,0,5.573
		C76.672-38.375,70.368-38.375,63.882-38.375z"/>
	<path fill="#CCCCCC" d="M20.613-30.913c0-1.896,0-3.666,0-5.573c6.38,0,12.725,0,19.174,0c0,1.847,0,3.66,0,5.573
		C33.411-30.913,27.101-30.913,20.613-30.913z"/>
	<path fill="#CCCCCC" d="M83.027-36.53c0,1.852,0,3.668,0,5.6c-6.333,0-12.638,0-19.08,0c0-1.808,0-3.656,0-5.6
		C70.3-36.53,76.608-36.53,83.027-36.53z"/>
	<path fill="#CCCCCC" d="M83.051-58.88c0,1.866,0,3.632,0,5.523c-6.356,0-12.665,0-19.108,0c0-1.771,0-3.581,0-5.523
		C70.226-58.88,76.54-58.88,83.051-58.88z"/>
	<path fill="#CCCCCC" d="M83.063-51.46c0,1.931,0,3.696,0,5.578c-6.408,0-12.742,0-19.16,0c0-1.875,0-3.68,0-5.578
		C70.296-51.46,76.596-51.46,83.063-51.46z"/>
	<path fill="#CCCCCC" d="M104.696-43.958c0,1.875,0,3.687,0,5.594c-6.381,0-12.687,0-19.116,0c0-1.843,0-3.652,0-5.594
		C91.884-43.958,98.187-43.958,104.696-43.958z"/>
	<path fill="#CCCCCC" d="M-1-30.923c0-1.894,0-3.707,0-5.609c6.409,0,12.72,0,19.138,0c0,1.872,0,3.685,0,5.609
		C11.816-30.923,5.504-30.923-1-30.923z"/>
	<path fill="#CCCCCC" d="M42.27-38.373c0-1.889,0-3.661,0-5.574c6.379,0,12.717,0,19.148,0c0,1.848,0,3.659,0,5.574
		C55.064-38.373,48.761-38.373,42.27-38.373z"/>
	<path fill="#CCCCCC" d="M61.403-30.872c-6.387,0-12.652,0-19.058,0c0-1.871,0-3.718,0-5.659c6.343,0,12.648,0,19.058,0
		C61.403-34.664,61.403-32.853,61.403-30.872z"/>
	<path fill="#CCCCCC" d="M18.154-43.969c0,1.9,0,3.713,0,5.613c-6.4,0-12.711,0-19.137,0c0-1.867,0-3.679,0-5.613
		C5.344-43.969,11.653-43.969,18.154-43.969z"/>
	<path fill="#CCCCCC" d="M85.552-45.881c0-1.866,0-3.672,0-5.576c6.394,0,12.694,0,19.109,0c0,1.846,0,3.652,0,5.576
		C98.327-45.881,91.987-45.881,85.552-45.881z"/>
	<path fill="#CCCCCC" d="M104.692-36.506c0,1.902,0,3.715,0,5.61c-6.393,0-12.702,0-19.123,0c0-1.868,0-3.68,0-5.61
		C91.892-36.506,98.201-36.506,104.692-36.506z"/>
	<path fill="#CCCCCC" d="M61.447-51.452c0,1.896,0,3.667,0,5.563c-6.369,0-12.707,0-19.144,0c0-1.844,0-3.651,0-5.563
		C48.661-51.452,54.959-51.452,61.447-51.452z"/>
	<path fill="#CCCCCC" d="M-0.992-45.872c0-1.892,0-3.698,0-5.594c6.408,0,12.712,0,19.125,0c0,1.872,0,3.678,0,5.594
		C11.765-45.872,5.419-45.872-0.992-45.872z"/>
	<path fill="#CCCCCC" d="M104.692-53.317c-6.412,0-12.726,0-19.133,0c0-1.893,0-3.701,0-5.6c6.417,0,12.733,0,19.133,0
		C104.692-57.054,104.692-55.282,104.692-53.317z"/>
	<path fill="#CCCCCC" d="M42.276-53.351c0-1.858,0-3.628,0-5.53c6.358,0,12.665,0,19.102,0c0,1.797,0,3.603,0,5.53
		C55.092-53.351,48.782-53.351,42.276-53.351z"/>
	<path fill="#CCCCCC" d="M-0.993-53.338c0-1.883,0-3.687,0-5.582c6.406,0,12.709,0,19.124,0c0,1.865,0,3.67,0,5.582
		C11.767-53.338,5.423-53.338-0.993-53.338z"/>
	<path fill="#CCCCCC" d="M85.551-60.822c0-1.86,0-3.672,0-5.591c6.379,0,12.686,0,19.11,0c0,1.842,0,3.652,0,5.591
		C98.338-60.822,91.992-60.822,85.551-60.822z"/>
	<path fill="#CCCCCC" d="M42.294-60.813c0-1.887,0-3.699,0-5.608c6.394,0,12.698,0,19.109,0c0,1.87,0,3.679,0,5.608
		C55.093-60.813,48.788-60.813,42.294-60.813z"/>
	<path fill="#CCCCCC" d="M-0.991-66.451c6.436,0,12.703,0,19.103,0c0,1.86,0,3.67,0,5.619c-6.293,0-12.644,0-19.103,0
		C-0.991-62.66-0.991-64.474-0.991-66.451z"/>
	<path fill="#CCCCCC" d="M104.705-73.862c0,1.926,0,3.699,0,5.569c-6.384,0-12.699,0-19.131,0c0-1.839,0-3.649,0-5.569
		C91.929-73.862,98.245-73.862,104.705-73.862z"/>
	<path fill="#CCCCCC" d="M61.442-73.858c0,1.911,0,3.683,0,5.559c-6.378,0-12.69,0-19.12,0c0-1.824,0-3.634,0-5.559
		C48.654-73.858,54.967-73.858,61.442-73.858z"/>
	<path fill="#CCCCCC" d="M104.703-81.314c0,1.917,0,3.688,0,5.557c-6.383,0-12.693,0-19.125,0c0-1.834,0-3.642,0-5.557
		C91.929-81.314,98.244-81.314,104.703-81.314z"/>
	<path fill="#CCCCCC" d="M61.423-81.326c0,1.958,0,3.725,0,5.579c-6.394,0-12.702,0-19.115,0c0-1.868,0-3.676,0-5.579
		C48.689-81.326,55.003-81.326,61.423-81.326z"/>
	<path fill="#CCCCCC" d="M85.553-83.245c0-1.881,0-3.688,0-5.59c6.4,0,12.704,0,19.115,0c0,1.864,0,3.67,0,5.59
		C98.317-83.245,91.975-83.245,85.553-83.245z"/>
</g>
</svg>
